%TF.GenerationSoftware,KiCad,Pcbnew,8.0.2*%
%TF.CreationDate,2024-06-26T19:24:32-04:00*%
%TF.ProjectId,pcb_forfirstproject,7063625f-666f-4726-9669-72737470726f,rev?*%
%TF.SameCoordinates,Original*%
%TF.FileFunction,Paste,Top*%
%TF.FilePolarity,Positive*%
%FSLAX46Y46*%
G04 Gerber Fmt 4.6, Leading zero omitted, Abs format (unit mm)*
G04 Created by KiCad (PCBNEW 8.0.2) date 2024-06-26 19:24:32*
%MOMM*%
%LPD*%
G01*
G04 APERTURE LIST*
G04 Aperture macros list*
%AMRoundRect*
0 Rectangle with rounded corners*
0 $1 Rounding radius*
0 $2 $3 $4 $5 $6 $7 $8 $9 X,Y pos of 4 corners*
0 Add a 4 corners polygon primitive as box body*
4,1,4,$2,$3,$4,$5,$6,$7,$8,$9,$2,$3,0*
0 Add four circle primitives for the rounded corners*
1,1,$1+$1,$2,$3*
1,1,$1+$1,$4,$5*
1,1,$1+$1,$6,$7*
1,1,$1+$1,$8,$9*
0 Add four rect primitives between the rounded corners*
20,1,$1+$1,$2,$3,$4,$5,0*
20,1,$1+$1,$4,$5,$6,$7,0*
20,1,$1+$1,$6,$7,$8,$9,0*
20,1,$1+$1,$8,$9,$2,$3,0*%
G04 Aperture macros list end*
%ADD10C,0.010000*%
%ADD11RoundRect,0.250000X0.412500X1.100000X-0.412500X1.100000X-0.412500X-1.100000X0.412500X-1.100000X0*%
%ADD12RoundRect,0.098750X-1.736250X-0.296250X1.736250X-0.296250X1.736250X0.296250X-1.736250X0.296250X0*%
%ADD13R,2.413000X5.207000*%
%ADD14R,2.000000X5.500000*%
%ADD15RoundRect,0.250000X-0.412500X-1.100000X0.412500X-1.100000X0.412500X1.100000X-0.412500X1.100000X0*%
%ADD16RoundRect,0.250000X-0.400000X-1.075000X0.400000X-1.075000X0.400000X1.075000X-0.400000X1.075000X0*%
%ADD17RoundRect,0.075000X0.415425X0.521491X-0.521491X-0.415425X-0.415425X-0.521491X0.521491X0.415425X0*%
%ADD18RoundRect,0.075000X-0.415425X0.521491X-0.521491X0.415425X0.415425X-0.521491X0.521491X-0.415425X0*%
%ADD19R,1.200000X1.200000*%
%ADD20R,1.600000X1.500000*%
%ADD21RoundRect,0.250000X-1.075000X0.400000X-1.075000X-0.400000X1.075000X-0.400000X1.075000X0.400000X0*%
%ADD22RoundRect,0.250000X1.100000X-0.412500X1.100000X0.412500X-1.100000X0.412500X-1.100000X-0.412500X0*%
%ADD23RoundRect,0.250000X-1.100000X0.412500X-1.100000X-0.412500X1.100000X-0.412500X1.100000X0.412500X0*%
%ADD24R,1.168400X0.355600*%
%ADD25RoundRect,0.250000X1.075000X-0.400000X1.075000X0.400000X-1.075000X0.400000X-1.075000X-0.400000X0*%
%ADD26RoundRect,0.250000X0.400000X1.075000X-0.400000X1.075000X-0.400000X-1.075000X0.400000X-1.075000X0*%
%ADD27R,0.457200X1.219200*%
%ADD28R,5.207000X2.413000*%
%ADD29R,0.939800X2.413000*%
%ADD30R,5.562600X6.553200*%
G04 APERTURE END LIST*
D10*
%TO.C,U5*%
X95525000Y-111975485D02*
X94115000Y-111975485D01*
X94115000Y-110395485D01*
X95525000Y-110395485D01*
X95525000Y-111975485D01*
G36*
X95525000Y-111975485D02*
G01*
X94115000Y-111975485D01*
X94115000Y-110395485D01*
X95525000Y-110395485D01*
X95525000Y-111975485D01*
G37*
X95525000Y-114045485D02*
X94115000Y-114045485D01*
X94115000Y-112465485D01*
X95525000Y-112465485D01*
X95525000Y-114045485D01*
G36*
X95525000Y-114045485D02*
G01*
X94115000Y-114045485D01*
X94115000Y-112465485D01*
X95525000Y-112465485D01*
X95525000Y-114045485D01*
G37*
X95525000Y-116115485D02*
X94115000Y-116115485D01*
X94115000Y-114535485D01*
X95525000Y-114535485D01*
X95525000Y-116115485D01*
G36*
X95525000Y-116115485D02*
G01*
X94115000Y-116115485D01*
X94115000Y-114535485D01*
X95525000Y-114535485D01*
X95525000Y-116115485D01*
G37*
X95525000Y-118185485D02*
X94115000Y-118185485D01*
X94115000Y-116605485D01*
X95525000Y-116605485D01*
X95525000Y-118185485D01*
G36*
X95525000Y-118185485D02*
G01*
X94115000Y-118185485D01*
X94115000Y-116605485D01*
X95525000Y-116605485D01*
X95525000Y-118185485D01*
G37*
X95525000Y-120255485D02*
X94115000Y-120255485D01*
X94115000Y-118675485D01*
X95525000Y-118675485D01*
X95525000Y-120255485D01*
G36*
X95525000Y-120255485D02*
G01*
X94115000Y-120255485D01*
X94115000Y-118675485D01*
X95525000Y-118675485D01*
X95525000Y-120255485D01*
G37*
X98205000Y-111975485D02*
X96795000Y-111975485D01*
X96795000Y-110395485D01*
X98205000Y-110395485D01*
X98205000Y-111975485D01*
G36*
X98205000Y-111975485D02*
G01*
X96795000Y-111975485D01*
X96795000Y-110395485D01*
X98205000Y-110395485D01*
X98205000Y-111975485D01*
G37*
X98205000Y-114045485D02*
X96795000Y-114045485D01*
X96795000Y-112465485D01*
X98205000Y-112465485D01*
X98205000Y-114045485D01*
G36*
X98205000Y-114045485D02*
G01*
X96795000Y-114045485D01*
X96795000Y-112465485D01*
X98205000Y-112465485D01*
X98205000Y-114045485D01*
G37*
X98205000Y-116115485D02*
X96795000Y-116115485D01*
X96795000Y-114535485D01*
X98205000Y-114535485D01*
X98205000Y-116115485D01*
G36*
X98205000Y-116115485D02*
G01*
X96795000Y-116115485D01*
X96795000Y-114535485D01*
X98205000Y-114535485D01*
X98205000Y-116115485D01*
G37*
X98205000Y-118185485D02*
X96795000Y-118185485D01*
X96795000Y-116605485D01*
X98205000Y-116605485D01*
X98205000Y-118185485D01*
G36*
X98205000Y-118185485D02*
G01*
X96795000Y-118185485D01*
X96795000Y-116605485D01*
X98205000Y-116605485D01*
X98205000Y-118185485D01*
G37*
X98205000Y-120255485D02*
X96795000Y-120255485D01*
X96795000Y-118675485D01*
X98205000Y-118675485D01*
X98205000Y-120255485D01*
G36*
X98205000Y-120255485D02*
G01*
X96795000Y-120255485D01*
X96795000Y-118675485D01*
X98205000Y-118675485D01*
X98205000Y-120255485D01*
G37*
X100885000Y-111975485D02*
X99475000Y-111975485D01*
X99475000Y-110395485D01*
X100885000Y-110395485D01*
X100885000Y-111975485D01*
G36*
X100885000Y-111975485D02*
G01*
X99475000Y-111975485D01*
X99475000Y-110395485D01*
X100885000Y-110395485D01*
X100885000Y-111975485D01*
G37*
X100885000Y-114045485D02*
X99475000Y-114045485D01*
X99475000Y-112465485D01*
X100885000Y-112465485D01*
X100885000Y-114045485D01*
G36*
X100885000Y-114045485D02*
G01*
X99475000Y-114045485D01*
X99475000Y-112465485D01*
X100885000Y-112465485D01*
X100885000Y-114045485D01*
G37*
X100885000Y-116115485D02*
X99475000Y-116115485D01*
X99475000Y-114535485D01*
X100885000Y-114535485D01*
X100885000Y-116115485D01*
G36*
X100885000Y-116115485D02*
G01*
X99475000Y-116115485D01*
X99475000Y-114535485D01*
X100885000Y-114535485D01*
X100885000Y-116115485D01*
G37*
X100885000Y-118185485D02*
X99475000Y-118185485D01*
X99475000Y-116605485D01*
X100885000Y-116605485D01*
X100885000Y-118185485D01*
G36*
X100885000Y-118185485D02*
G01*
X99475000Y-118185485D01*
X99475000Y-116605485D01*
X100885000Y-116605485D01*
X100885000Y-118185485D01*
G37*
X100885000Y-120255485D02*
X99475000Y-120255485D01*
X99475000Y-118675485D01*
X100885000Y-118675485D01*
X100885000Y-120255485D01*
G36*
X100885000Y-120255485D02*
G01*
X99475000Y-120255485D01*
X99475000Y-118675485D01*
X100885000Y-118675485D01*
X100885000Y-120255485D01*
G37*
%TO.C,U3*%
X95525000Y-93475485D02*
X94115000Y-93475485D01*
X94115000Y-91895485D01*
X95525000Y-91895485D01*
X95525000Y-93475485D01*
G36*
X95525000Y-93475485D02*
G01*
X94115000Y-93475485D01*
X94115000Y-91895485D01*
X95525000Y-91895485D01*
X95525000Y-93475485D01*
G37*
X95525000Y-95545485D02*
X94115000Y-95545485D01*
X94115000Y-93965485D01*
X95525000Y-93965485D01*
X95525000Y-95545485D01*
G36*
X95525000Y-95545485D02*
G01*
X94115000Y-95545485D01*
X94115000Y-93965485D01*
X95525000Y-93965485D01*
X95525000Y-95545485D01*
G37*
X95525000Y-97615485D02*
X94115000Y-97615485D01*
X94115000Y-96035485D01*
X95525000Y-96035485D01*
X95525000Y-97615485D01*
G36*
X95525000Y-97615485D02*
G01*
X94115000Y-97615485D01*
X94115000Y-96035485D01*
X95525000Y-96035485D01*
X95525000Y-97615485D01*
G37*
X95525000Y-99685485D02*
X94115000Y-99685485D01*
X94115000Y-98105485D01*
X95525000Y-98105485D01*
X95525000Y-99685485D01*
G36*
X95525000Y-99685485D02*
G01*
X94115000Y-99685485D01*
X94115000Y-98105485D01*
X95525000Y-98105485D01*
X95525000Y-99685485D01*
G37*
X95525000Y-101755485D02*
X94115000Y-101755485D01*
X94115000Y-100175485D01*
X95525000Y-100175485D01*
X95525000Y-101755485D01*
G36*
X95525000Y-101755485D02*
G01*
X94115000Y-101755485D01*
X94115000Y-100175485D01*
X95525000Y-100175485D01*
X95525000Y-101755485D01*
G37*
X98205000Y-93475485D02*
X96795000Y-93475485D01*
X96795000Y-91895485D01*
X98205000Y-91895485D01*
X98205000Y-93475485D01*
G36*
X98205000Y-93475485D02*
G01*
X96795000Y-93475485D01*
X96795000Y-91895485D01*
X98205000Y-91895485D01*
X98205000Y-93475485D01*
G37*
X98205000Y-95545485D02*
X96795000Y-95545485D01*
X96795000Y-93965485D01*
X98205000Y-93965485D01*
X98205000Y-95545485D01*
G36*
X98205000Y-95545485D02*
G01*
X96795000Y-95545485D01*
X96795000Y-93965485D01*
X98205000Y-93965485D01*
X98205000Y-95545485D01*
G37*
X98205000Y-97615485D02*
X96795000Y-97615485D01*
X96795000Y-96035485D01*
X98205000Y-96035485D01*
X98205000Y-97615485D01*
G36*
X98205000Y-97615485D02*
G01*
X96795000Y-97615485D01*
X96795000Y-96035485D01*
X98205000Y-96035485D01*
X98205000Y-97615485D01*
G37*
X98205000Y-99685485D02*
X96795000Y-99685485D01*
X96795000Y-98105485D01*
X98205000Y-98105485D01*
X98205000Y-99685485D01*
G36*
X98205000Y-99685485D02*
G01*
X96795000Y-99685485D01*
X96795000Y-98105485D01*
X98205000Y-98105485D01*
X98205000Y-99685485D01*
G37*
X98205000Y-101755485D02*
X96795000Y-101755485D01*
X96795000Y-100175485D01*
X98205000Y-100175485D01*
X98205000Y-101755485D01*
G36*
X98205000Y-101755485D02*
G01*
X96795000Y-101755485D01*
X96795000Y-100175485D01*
X98205000Y-100175485D01*
X98205000Y-101755485D01*
G37*
X100885000Y-93475485D02*
X99475000Y-93475485D01*
X99475000Y-91895485D01*
X100885000Y-91895485D01*
X100885000Y-93475485D01*
G36*
X100885000Y-93475485D02*
G01*
X99475000Y-93475485D01*
X99475000Y-91895485D01*
X100885000Y-91895485D01*
X100885000Y-93475485D01*
G37*
X100885000Y-95545485D02*
X99475000Y-95545485D01*
X99475000Y-93965485D01*
X100885000Y-93965485D01*
X100885000Y-95545485D01*
G36*
X100885000Y-95545485D02*
G01*
X99475000Y-95545485D01*
X99475000Y-93965485D01*
X100885000Y-93965485D01*
X100885000Y-95545485D01*
G37*
X100885000Y-97615485D02*
X99475000Y-97615485D01*
X99475000Y-96035485D01*
X100885000Y-96035485D01*
X100885000Y-97615485D01*
G36*
X100885000Y-97615485D02*
G01*
X99475000Y-97615485D01*
X99475000Y-96035485D01*
X100885000Y-96035485D01*
X100885000Y-97615485D01*
G37*
X100885000Y-99685485D02*
X99475000Y-99685485D01*
X99475000Y-98105485D01*
X100885000Y-98105485D01*
X100885000Y-99685485D01*
G36*
X100885000Y-99685485D02*
G01*
X99475000Y-99685485D01*
X99475000Y-98105485D01*
X100885000Y-98105485D01*
X100885000Y-99685485D01*
G37*
X100885000Y-101755485D02*
X99475000Y-101755485D01*
X99475000Y-100175485D01*
X100885000Y-100175485D01*
X100885000Y-101755485D01*
G36*
X100885000Y-101755485D02*
G01*
X99475000Y-101755485D01*
X99475000Y-100175485D01*
X100885000Y-100175485D01*
X100885000Y-101755485D01*
G37*
%TD*%
D11*
%TO.C,C5*%
X150062500Y-105825485D03*
X146937500Y-105825485D03*
%TD*%
D12*
%TO.C,U5*%
X87540000Y-111515485D03*
X87540000Y-112785485D03*
X87540000Y-114055485D03*
X87540000Y-115325485D03*
X87540000Y-116595485D03*
X87540000Y-117865485D03*
X87540000Y-119135485D03*
%TD*%
%TO.C,U3*%
X87540000Y-93015485D03*
X87540000Y-94285485D03*
X87540000Y-95555485D03*
X87540000Y-96825485D03*
X87540000Y-98095485D03*
X87540000Y-99365485D03*
X87540000Y-100635485D03*
%TD*%
D13*
%TO.C,L6*%
X169458100Y-74825485D03*
X179541900Y-74825485D03*
%TD*%
D14*
%TO.C,Y1*%
X180000000Y-89825485D03*
X180000000Y-99325485D03*
%TD*%
D15*
%TO.C,C17*%
X191500000Y-86174495D03*
X194625000Y-86174495D03*
%TD*%
D16*
%TO.C,R9*%
X179400000Y-105662985D03*
X182500000Y-105662985D03*
%TD*%
%TO.C,R8*%
X196950000Y-74825485D03*
X200050000Y-74825485D03*
%TD*%
D11*
%TO.C,C20*%
X164500000Y-122325485D03*
X161375000Y-122325485D03*
%TD*%
D17*
%TO.C,U1*%
X163387876Y-107826697D03*
X163034322Y-107473143D03*
X162680769Y-107119590D03*
X162327215Y-106766036D03*
X161973662Y-106412483D03*
X161620109Y-106058930D03*
X161266555Y-105705376D03*
X160913002Y-105351823D03*
X160559449Y-104998270D03*
X160205895Y-104644716D03*
X159852342Y-104291163D03*
X159498788Y-103937609D03*
D18*
X157501212Y-103937609D03*
X157147658Y-104291163D03*
X156794105Y-104644716D03*
X156440551Y-104998270D03*
X156086998Y-105351823D03*
X155733445Y-105705376D03*
X155379891Y-106058930D03*
X155026338Y-106412483D03*
X154672785Y-106766036D03*
X154319231Y-107119590D03*
X153965678Y-107473143D03*
X153612124Y-107826697D03*
D17*
X153612124Y-109824273D03*
X153965678Y-110177827D03*
X154319231Y-110531380D03*
X154672785Y-110884934D03*
X155026338Y-111238487D03*
X155379891Y-111592040D03*
X155733445Y-111945594D03*
X156086998Y-112299147D03*
X156440551Y-112652700D03*
X156794105Y-113006254D03*
X157147658Y-113359807D03*
X157501212Y-113713361D03*
D18*
X159498788Y-113713361D03*
X159852342Y-113359807D03*
X160205895Y-113006254D03*
X160559449Y-112652700D03*
X160913002Y-112299147D03*
X161266555Y-111945594D03*
X161620109Y-111592040D03*
X161973662Y-111238487D03*
X162327215Y-110884934D03*
X162680769Y-110531380D03*
X163034322Y-110177827D03*
X163387876Y-109824273D03*
%TD*%
D16*
%TO.C,R4*%
X143950000Y-132325485D03*
X147050000Y-132325485D03*
%TD*%
D19*
%TO.C,POT2*%
X180500000Y-137825485D03*
D20*
X181500000Y-134575485D03*
D19*
X182500000Y-137825485D03*
%TD*%
D21*
%TO.C,R5*%
X150500000Y-92775485D03*
X150500000Y-95875485D03*
%TD*%
D15*
%TO.C,C16*%
X85375000Y-86825485D03*
X88500000Y-86825485D03*
%TD*%
D22*
%TO.C,C37*%
X128500000Y-106325485D03*
X128500000Y-103200485D03*
%TD*%
D16*
%TO.C,R3*%
X135950000Y-132325485D03*
X139050000Y-132325485D03*
%TD*%
D15*
%TO.C,C34*%
X141875000Y-89867385D03*
X145000000Y-89867385D03*
%TD*%
D23*
%TO.C,C9*%
X162750000Y-130925485D03*
X162750000Y-134050485D03*
%TD*%
D22*
%TO.C,C40*%
X121000000Y-81387985D03*
X121000000Y-78262985D03*
%TD*%
%TO.C,C11*%
X122500000Y-134325485D03*
X122500000Y-131200485D03*
%TD*%
D11*
%TO.C,C8*%
X164062500Y-127487985D03*
X160937500Y-127487985D03*
%TD*%
D23*
%TO.C,C35*%
X71500000Y-91262985D03*
X71500000Y-94387985D03*
%TD*%
D21*
%TO.C,R6*%
X174250000Y-101275485D03*
X174250000Y-104375485D03*
%TD*%
D24*
%TO.C,U2*%
X196041400Y-62499990D03*
X196041400Y-61849991D03*
X196041400Y-61199992D03*
X193958600Y-61199992D03*
X193958600Y-62499990D03*
%TD*%
D11*
%TO.C,C7*%
X147500000Y-115825485D03*
X144375000Y-115825485D03*
%TD*%
%TO.C,C36*%
X95562500Y-83325485D03*
X92437500Y-83325485D03*
%TD*%
%TO.C,C18*%
X200125000Y-67499990D03*
X197000000Y-67499990D03*
%TD*%
D15*
%TO.C,C2*%
X184437500Y-90575485D03*
X187562500Y-90575485D03*
%TD*%
%TO.C,C3*%
X166437500Y-109325485D03*
X169562500Y-109325485D03*
%TD*%
D25*
%TO.C,R10*%
X128500000Y-78375485D03*
X128500000Y-75275485D03*
%TD*%
D21*
%TO.C,R19*%
X123000000Y-123787985D03*
X123000000Y-126887985D03*
%TD*%
D26*
%TO.C,R7*%
X201500000Y-81174495D03*
X198400000Y-81174495D03*
%TD*%
D27*
%TO.C,Q2*%
X129230000Y-70665585D03*
X131770000Y-70665585D03*
X131770000Y-63985385D03*
X129230000Y-63985385D03*
%TD*%
D22*
%TO.C,C32*%
X182500000Y-66387985D03*
X182500000Y-63262985D03*
%TD*%
%TO.C,C13*%
X118000000Y-126887985D03*
X118000000Y-123762985D03*
%TD*%
D23*
%TO.C,C39*%
X77500000Y-140262985D03*
X77500000Y-143387985D03*
%TD*%
D21*
%TO.C,R21*%
X132500000Y-103200485D03*
X132500000Y-106300485D03*
%TD*%
%TO.C,R14*%
X123000000Y-98775485D03*
X123000000Y-101875485D03*
%TD*%
D23*
%TO.C,C19*%
X154500000Y-93200485D03*
X154500000Y-96325485D03*
%TD*%
D26*
%TO.C,R18*%
X124550000Y-118825485D03*
X121450000Y-118825485D03*
%TD*%
D22*
%TO.C,C12*%
X119000000Y-101900485D03*
X119000000Y-98775485D03*
%TD*%
D11*
%TO.C,C4*%
X157125000Y-117825485D03*
X154000000Y-117825485D03*
%TD*%
D25*
%TO.C,R20*%
X122000000Y-72325485D03*
X122000000Y-69225485D03*
%TD*%
D28*
%TO.C,L7*%
X138500000Y-74825485D03*
X138500000Y-84909285D03*
%TD*%
D22*
%TO.C,C15*%
X73000000Y-121387985D03*
X73000000Y-118262985D03*
%TD*%
D21*
%TO.C,R13*%
X117500000Y-131212985D03*
X117500000Y-134312985D03*
%TD*%
D22*
%TO.C,C10*%
X176500000Y-128450485D03*
X176500000Y-125325485D03*
%TD*%
D26*
%TO.C,R2*%
X203550000Y-62499990D03*
X200450000Y-62499990D03*
%TD*%
D29*
%TO.C,MOSFET2*%
X108790000Y-78599185D03*
D30*
X106500000Y-85825485D03*
D29*
X104210000Y-78599185D03*
%TD*%
D15*
%TO.C,C1*%
X184437500Y-96575485D03*
X187562500Y-96575485D03*
%TD*%
D11*
%TO.C,C21*%
X201625000Y-86174495D03*
X198500000Y-86174495D03*
%TD*%
D16*
%TO.C,R1*%
X199450000Y-56825485D03*
X202550000Y-56825485D03*
%TD*%
D26*
%TO.C,R17*%
X123550000Y-89825485D03*
X120450000Y-89825485D03*
%TD*%
D15*
%TO.C,C22*%
X190437500Y-67499990D03*
X193562500Y-67499990D03*
%TD*%
D11*
%TO.C,C33*%
X142000000Y-63825485D03*
X138875000Y-63825485D03*
%TD*%
D15*
%TO.C,C6*%
X167500000Y-104325485D03*
X170625000Y-104325485D03*
%TD*%
D23*
%TO.C,C14*%
X80000000Y-118262985D03*
X80000000Y-121387985D03*
%TD*%
D26*
%TO.C,R15*%
X124550000Y-113325485D03*
X121450000Y-113325485D03*
%TD*%
D11*
%TO.C,C31*%
X142562500Y-68825485D03*
X139437500Y-68825485D03*
%TD*%
D24*
%TO.C,U6*%
X193582800Y-81174495D03*
X193582800Y-80524496D03*
X193582800Y-79874497D03*
X191500000Y-79874497D03*
X191500000Y-81174495D03*
%TD*%
D26*
%TO.C,R16*%
X123450000Y-93825485D03*
X120350000Y-93825485D03*
%TD*%
M02*
