%TF.GenerationSoftware,KiCad,Pcbnew,8.0.2*%
%TF.CreationDate,2024-06-26T19:24:32-04:00*%
%TF.ProjectId,pcb_forfirstproject,7063625f-666f-4726-9669-72737470726f,rev?*%
%TF.SameCoordinates,Original*%
%TF.FileFunction,Soldermask,Bot*%
%TF.FilePolarity,Negative*%
%FSLAX46Y46*%
G04 Gerber Fmt 4.6, Leading zero omitted, Abs format (unit mm)*
G04 Created by KiCad (PCBNEW 8.0.2) date 2024-06-26 19:24:32*
%MOMM*%
%LPD*%
G01*
G04 APERTURE LIST*
G04 Aperture macros list*
%AMRoundRect*
0 Rectangle with rounded corners*
0 $1 Rounding radius*
0 $2 $3 $4 $5 $6 $7 $8 $9 X,Y pos of 4 corners*
0 Add a 4 corners polygon primitive as box body*
4,1,4,$2,$3,$4,$5,$6,$7,$8,$9,$2,$3,0*
0 Add four circle primitives for the rounded corners*
1,1,$1+$1,$2,$3*
1,1,$1+$1,$4,$5*
1,1,$1+$1,$6,$7*
1,1,$1+$1,$8,$9*
0 Add four rect primitives between the rounded corners*
20,1,$1+$1,$2,$3,$4,$5,0*
20,1,$1+$1,$4,$5,$6,$7,0*
20,1,$1+$1,$6,$7,$8,$9,0*
20,1,$1+$1,$8,$9,$2,$3,0*%
G04 Aperture macros list end*
%ADD10R,2.000001X1.400000*%
%ADD11O,2.000001X1.400000*%
%ADD12RoundRect,0.102000X-0.975000X-0.975000X0.975000X-0.975000X0.975000X0.975000X-0.975000X0.975000X0*%
%ADD13C,2.154000*%
%ADD14C,2.000000*%
%ADD15RoundRect,0.102000X0.975000X0.975000X-0.975000X0.975000X-0.975000X-0.975000X0.975000X-0.975000X0*%
%ADD16R,2.200000X2.200000*%
%ADD17O,2.200000X2.200000*%
%ADD18C,1.574800*%
%ADD19C,1.371600*%
%ADD20R,1.000000X1.000000*%
%ADD21O,1.000000X1.000000*%
%ADD22R,1.854200X1.854200*%
%ADD23C,1.854200*%
%ADD24RoundRect,0.102000X-0.975000X0.975000X-0.975000X-0.975000X0.975000X-0.975000X0.975000X0.975000X0*%
%ADD25RoundRect,0.102000X0.505000X-0.505000X0.505000X0.505000X-0.505000X0.505000X-0.505000X-0.505000X0*%
%ADD26C,1.214000*%
G04 APERTURE END LIST*
D10*
%TO.C,VR2*%
X159400000Y-65725485D03*
D11*
X159400000Y-67425485D03*
X159400000Y-69125486D03*
X159400000Y-70825485D03*
X159400000Y-72525485D03*
%TD*%
D12*
%TO.C,J8*%
X95767000Y-63825485D03*
D13*
X100767000Y-63825485D03*
%TD*%
D12*
%TO.C,J1*%
X135534000Y-49825485D03*
D13*
X140534000Y-49825485D03*
%TD*%
D14*
%TO.C,FB1*%
X167960000Y-128825485D03*
X173040000Y-128825485D03*
%TD*%
D10*
%TO.C,U8*%
X149000000Y-65767385D03*
D11*
X149000000Y-67467385D03*
X149000000Y-69167386D03*
X149000000Y-70867385D03*
X149000000Y-72567385D03*
%TD*%
D15*
%TO.C,J2*%
X139000000Y-142325485D03*
D13*
X134000000Y-142325485D03*
X129000000Y-142325485D03*
%TD*%
D16*
%TO.C,D7*%
X150000000Y-78829285D03*
D17*
X150000000Y-88989285D03*
%TD*%
D18*
%TO.C,SW1*%
X209500000Y-58500000D03*
X214500000Y-58500000D03*
X214500000Y-63499990D03*
X209500000Y-63499990D03*
%TD*%
D19*
%TO.C,C38*%
X77835150Y-131825485D03*
X72831350Y-131825485D03*
%TD*%
D20*
%TO.C,J4*%
X155270000Y-127325485D03*
D21*
X154000000Y-127325485D03*
X152730000Y-127325485D03*
X151460000Y-127325485D03*
%TD*%
D16*
%TO.C,D6*%
X167420000Y-64825485D03*
D17*
X177580000Y-64825485D03*
%TD*%
D22*
%TO.C,U4*%
X116000000Y-88440785D03*
D23*
X116000000Y-70813185D03*
%TD*%
D18*
%TO.C,SW3*%
X209500000Y-78825495D03*
X214500000Y-78825495D03*
X214500000Y-83825485D03*
X209500000Y-83825485D03*
%TD*%
D24*
%TO.C,J9*%
X76500000Y-102592485D03*
D13*
X76500000Y-107592485D03*
%TD*%
D25*
%TO.C,J3*%
X216500000Y-126715485D03*
D26*
X216500000Y-125445485D03*
X216500000Y-124175485D03*
X216500000Y-122905485D03*
X216500000Y-121635485D03*
X216500000Y-120365485D03*
X216500000Y-119095485D03*
X216500000Y-117825485D03*
X216500000Y-116555485D03*
X216500000Y-115285485D03*
X216500000Y-114015485D03*
X216500000Y-112745485D03*
X216500000Y-111475485D03*
X216500000Y-110205485D03*
X216500000Y-108935485D03*
%TD*%
D15*
%TO.C,J5*%
X156500000Y-142325485D03*
D13*
X151500000Y-142325485D03*
X146500000Y-142325485D03*
%TD*%
M02*
