M48
; DRILL file {KiCad 8.0.2} date 2024-06-26T19:24:30-0400
; FORMAT={-:-/ absolute / inch / decimal}
; #@! TF.CreationDate,2024-06-26T19:24:30-04:00
; #@! TF.GenerationSoftware,Kicad,Pcbnew,8.0.2
; #@! TF.FileFunction,Plated,1,2,PTH
FMAT,2
INCH
; #@! TA.AperFunction,Plated,PTH,ViaDrill
T1C0.0118
; #@! TA.AperFunction,Plated,PTH,ComponentDrill
T2C0.0256
; #@! TA.AperFunction,Plated,PTH,ComponentDrill
T3C0.0260
; #@! TA.AperFunction,Plated,PTH,ComponentDrill
T4C0.0315
; #@! TA.AperFunction,Plated,PTH,ComponentDrill
T5C0.0340
; #@! TA.AperFunction,Plated,PTH,ViaDrill
T6C0.0394
; #@! TA.AperFunction,Plated,PTH,ComponentDrill
T7C0.0420
; #@! TA.AperFunction,Plated,PTH,ComponentDrill
T8C0.0433
; #@! TA.AperFunction,Plated,PTH,ComponentDrill
T9C0.0512
; #@! TA.AperFunction,Plated,PTH,ComponentDrill
T10C0.0530
%
G90
G05
T1
X3.4449Y-3.5955
X3.563Y-4.3632
X3.5827Y-4.6388
X3.6024Y-3.9105
X3.6024Y-4.4813
X3.622Y-3.753
X3.622Y-3.8711
X3.622Y-4.4419
X3.622Y-4.5994
X3.6417Y-3.6939
X4.5472Y-3.6742
X4.5472Y-3.753
X4.5472Y-3.8711
X4.5472Y-3.9498
X4.5472Y-4.6782
X4.5669Y-4.4813
X4.6654Y-4.5207
X4.6654Y-5.0719
X4.7244Y-5.3475
X4.8425Y-5.0719
X4.9213Y-4.2057
X4.9803Y-3.9695
X5.2756Y-3.9892
X5.3937Y-4.501
X5.5118Y-3.9105
X5.5906Y-3.9498
X5.5906Y-5.3475
X5.6693Y-4.2254
X5.689Y-4.6585
X5.7087Y-4.1664
X5.7677Y-4.6782
X5.7874Y-3.7727
X5.8465Y-3.8514
X5.8465Y-4.1073
X5.8661Y-4.7963
X5.8858Y-4.4813
X5.9055Y-4.2549
X5.9449Y-4.3504
X5.9449Y-4.7372
X5.9646Y-4.2323
X5.9843Y-4.127
X5.9843Y-4.186
X6.0039Y-4.0679
X6.0236Y-3.5758
X6.0236Y-4.1073
X6.0236Y-4.4026
X6.063Y-5.3475
X6.122Y-4.3042
X6.1417Y-3.9695
X6.2205Y-4.2126
X6.2402Y-4.6782
X6.2598Y-5.0128
X6.2795Y-3.8908
X6.2992Y-3.9301
X6.2992Y-4.9144
X6.3583Y-3.8711
X6.3583Y-4.5601
X6.3976Y-4.0286
X6.4173Y-5.3475
X6.437Y-4.0089
X6.4567Y-3.9695
X6.4961Y-4.3829
X6.5157Y-4.6782
X6.5551Y-4.9341
X6.6142Y-3.5955
X6.6142Y-4.6979
X6.6339Y-3.9498
X6.6929Y-3.8711
X6.7323Y-3.9695
X6.7323Y-4.3042
X6.8307Y-3.379
X6.9094Y-4.4026
X6.9488Y-4.8356
X6.9685Y-4.186
X7.0472Y-3.379
X7.1457Y-5.0325
X7.2638Y-3.4577
X7.3031Y-3.9105
X7.5Y-3.5561
X7.6181Y-4.3435
X7.6969Y-2.5719
X7.6969Y-3.0837
X7.7362Y-3.4971
X7.7953Y-2.3553
X8.4449Y-2.749
X8.4449Y-2.8671
T2
X5.963Y-5.0128
X6.013Y-5.0128
X6.063Y-5.0128
X6.113Y-5.0128
T3
X8.5236Y-4.2888
X8.5236Y-4.3388
X8.5236Y-4.3888
X8.5236Y-4.4388
X8.5236Y-4.4888
X8.5236Y-4.5388
X8.5236Y-4.5888
X8.5236Y-4.6388
X8.5236Y-4.6888
X8.5236Y-4.7388
X8.5236Y-4.7888
X8.5236Y-4.8388
X8.5236Y-4.8888
X8.5236Y-4.9388
X8.5236Y-4.9888
T4
X6.6126Y-5.0719
X6.8126Y-5.0719
T5
X2.8674Y-5.19
X3.0644Y-5.19
T6
X2.7559Y-4.9341
X2.7756Y-4.2451
X2.7953Y-3.8976
X2.7953Y-4.3829
X2.815Y-3.4971
X2.815Y-5.4656
X2.8937Y-3.812
X2.8937Y-4.0945
X2.8937Y-4.4419
X2.8937Y-4.5404
X2.8937Y-5.6427
X3.0118Y-3.878
X3.0118Y-4.3898
X3.1102Y-4.4419
X3.1102Y-4.5404
X3.1299Y-3.812
X3.1299Y-4.0945
X3.2087Y-4.4026
X3.2283Y-3.8976
X3.248Y-4.252
X3.3071Y-4.5404
X3.3268Y-3.812
X3.4252Y-3.2018
X3.563Y-2.375
X3.563Y-2.5916
X3.563Y-2.7884
X3.563Y-2.9853
X3.563Y-3.812
X3.563Y-4.5404
X3.6417Y-3.812
X3.6417Y-4.5404
X3.7205Y-2.7884
X3.7205Y-2.9853
X4.7638Y-2.9853
X4.8031Y-2.6309
X5.2953Y-2.2372
X5.2953Y-2.4144
X5.3543Y-2.7293
X5.6299Y-3.2018
X5.7283Y-2.0601
X6.0433Y-2.8868
X6.0433Y-3.0246
X6.0827Y-2.7293
X6.2402Y-3.0443
X6.9882Y-5.4262
X7.0669Y-2.375
X8.4449Y-5.1309
T7
X8.248Y-2.3031
X8.248Y-2.5
X8.248Y-3.1034
X8.248Y-3.3002
X8.4449Y-2.3031
X8.4449Y-2.5
X8.4449Y-3.1034
X8.4449Y-3.3002
T8
X5.8661Y-2.5893
X5.8661Y-2.6562
X5.8661Y-2.7231
X5.8661Y-2.7901
X5.8661Y-2.857
X5.9055Y-3.1035
X5.9055Y-3.5035
X6.2756Y-2.5876
X6.2756Y-2.6545
X6.2756Y-2.7215
X6.2756Y-2.7884
X6.2756Y-2.8553
X6.5913Y-2.5522
X6.9913Y-2.5522
T9
X3.0118Y-4.0391
X3.0118Y-4.2359
X3.7704Y-2.5128
X3.9672Y-2.5128
X5.0787Y-5.6034
X5.2756Y-5.6034
X5.336Y-1.9616
X5.4724Y-5.6034
X5.5328Y-1.9616
X5.7677Y-5.6034
X5.9646Y-5.6034
X6.1614Y-5.6034
T10
X4.5669Y-2.7879
X4.5669Y-3.4819
M30
