%TF.GenerationSoftware,KiCad,Pcbnew,8.0.2*%
%TF.CreationDate,2024-06-26T19:24:32-04:00*%
%TF.ProjectId,pcb_forfirstproject,7063625f-666f-4726-9669-72737470726f,rev?*%
%TF.SameCoordinates,Original*%
%TF.FileFunction,Copper,L1,Top*%
%TF.FilePolarity,Positive*%
%FSLAX46Y46*%
G04 Gerber Fmt 4.6, Leading zero omitted, Abs format (unit mm)*
G04 Created by KiCad (PCBNEW 8.0.2) date 2024-06-26 19:24:32*
%MOMM*%
%LPD*%
G01*
G04 APERTURE LIST*
G04 Aperture macros list*
%AMRoundRect*
0 Rectangle with rounded corners*
0 $1 Rounding radius*
0 $2 $3 $4 $5 $6 $7 $8 $9 X,Y pos of 4 corners*
0 Add a 4 corners polygon primitive as box body*
4,1,4,$2,$3,$4,$5,$6,$7,$8,$9,$2,$3,0*
0 Add four circle primitives for the rounded corners*
1,1,$1+$1,$2,$3*
1,1,$1+$1,$4,$5*
1,1,$1+$1,$6,$7*
1,1,$1+$1,$8,$9*
0 Add four rect primitives between the rounded corners*
20,1,$1+$1,$2,$3,$4,$5,0*
20,1,$1+$1,$4,$5,$6,$7,0*
20,1,$1+$1,$6,$7,$8,$9,0*
20,1,$1+$1,$8,$9,$2,$3,0*%
G04 Aperture macros list end*
%TA.AperFunction,SMDPad,CuDef*%
%ADD10RoundRect,0.250000X0.412500X1.100000X-0.412500X1.100000X-0.412500X-1.100000X0.412500X-1.100000X0*%
%TD*%
%TA.AperFunction,SMDPad,CuDef*%
%ADD11RoundRect,0.098750X-1.736250X-0.296250X1.736250X-0.296250X1.736250X0.296250X-1.736250X0.296250X0*%
%TD*%
%TA.AperFunction,SMDPad,CuDef*%
%ADD12RoundRect,0.402000X-3.618000X4.783000X-3.618000X-4.783000X3.618000X-4.783000X3.618000X4.783000X0*%
%TD*%
%TA.AperFunction,SMDPad,CuDef*%
%ADD13R,2.413000X5.207000*%
%TD*%
%TA.AperFunction,SMDPad,CuDef*%
%ADD14R,2.000000X5.500000*%
%TD*%
%TA.AperFunction,SMDPad,CuDef*%
%ADD15RoundRect,0.250000X-0.412500X-1.100000X0.412500X-1.100000X0.412500X1.100000X-0.412500X1.100000X0*%
%TD*%
%TA.AperFunction,ComponentPad*%
%ADD16R,2.000001X1.400000*%
%TD*%
%TA.AperFunction,ComponentPad*%
%ADD17O,2.000001X1.400000*%
%TD*%
%TA.AperFunction,SMDPad,CuDef*%
%ADD18RoundRect,0.250000X-0.400000X-1.075000X0.400000X-1.075000X0.400000X1.075000X-0.400000X1.075000X0*%
%TD*%
%TA.AperFunction,SMDPad,CuDef*%
%ADD19RoundRect,0.075000X0.415425X0.521491X-0.521491X-0.415425X-0.415425X-0.521491X0.521491X0.415425X0*%
%TD*%
%TA.AperFunction,SMDPad,CuDef*%
%ADD20RoundRect,0.075000X-0.415425X0.521491X-0.521491X0.415425X0.415425X-0.521491X0.521491X-0.415425X0*%
%TD*%
%TA.AperFunction,SMDPad,CuDef*%
%ADD21R,1.200000X1.200000*%
%TD*%
%TA.AperFunction,SMDPad,CuDef*%
%ADD22R,1.600000X1.500000*%
%TD*%
%TA.AperFunction,ComponentPad*%
%ADD23R,1.950000X1.950000*%
%TD*%
%TA.AperFunction,ComponentPad*%
%ADD24C,1.950000*%
%TD*%
%TA.AperFunction,SMDPad,CuDef*%
%ADD25RoundRect,0.250000X-1.075000X0.400000X-1.075000X-0.400000X1.075000X-0.400000X1.075000X0.400000X0*%
%TD*%
%TA.AperFunction,SMDPad,CuDef*%
%ADD26RoundRect,0.250000X1.100000X-0.412500X1.100000X0.412500X-1.100000X0.412500X-1.100000X-0.412500X0*%
%TD*%
%TA.AperFunction,SMDPad,CuDef*%
%ADD27RoundRect,0.250000X-1.100000X0.412500X-1.100000X-0.412500X1.100000X-0.412500X1.100000X0.412500X0*%
%TD*%
%TA.AperFunction,ComponentPad*%
%ADD28C,2.000000*%
%TD*%
%TA.AperFunction,SMDPad,CuDef*%
%ADD29R,1.168400X0.355600*%
%TD*%
%TA.AperFunction,ComponentPad*%
%ADD30R,2.200000X2.200000*%
%TD*%
%TA.AperFunction,ComponentPad*%
%ADD31O,2.200000X2.200000*%
%TD*%
%TA.AperFunction,ComponentPad*%
%ADD32C,1.574800*%
%TD*%
%TA.AperFunction,SMDPad,CuDef*%
%ADD33RoundRect,0.250000X1.075000X-0.400000X1.075000X0.400000X-1.075000X0.400000X-1.075000X-0.400000X0*%
%TD*%
%TA.AperFunction,SMDPad,CuDef*%
%ADD34RoundRect,0.250000X0.400000X1.075000X-0.400000X1.075000X-0.400000X-1.075000X0.400000X-1.075000X0*%
%TD*%
%TA.AperFunction,SMDPad,CuDef*%
%ADD35R,0.457200X1.219200*%
%TD*%
%TA.AperFunction,ComponentPad*%
%ADD36C,1.371600*%
%TD*%
%TA.AperFunction,ComponentPad*%
%ADD37R,1.000000X1.000000*%
%TD*%
%TA.AperFunction,ComponentPad*%
%ADD38O,1.000000X1.000000*%
%TD*%
%TA.AperFunction,ComponentPad*%
%ADD39R,1.854200X1.854200*%
%TD*%
%TA.AperFunction,ComponentPad*%
%ADD40C,1.854200*%
%TD*%
%TA.AperFunction,SMDPad,CuDef*%
%ADD41R,5.207000X2.413000*%
%TD*%
%TA.AperFunction,SMDPad,CuDef*%
%ADD42R,0.939800X2.413000*%
%TD*%
%TA.AperFunction,SMDPad,CuDef*%
%ADD43R,5.562600X6.553200*%
%TD*%
%TA.AperFunction,ComponentPad*%
%ADD44R,1.010000X1.010000*%
%TD*%
%TA.AperFunction,ComponentPad*%
%ADD45C,1.010000*%
%TD*%
%TA.AperFunction,ViaPad*%
%ADD46C,0.700000*%
%TD*%
%TA.AperFunction,ViaPad*%
%ADD47C,1.500000*%
%TD*%
%TA.AperFunction,Conductor*%
%ADD48C,0.300000*%
%TD*%
%TA.AperFunction,Conductor*%
%ADD49C,1.000000*%
%TD*%
G04 APERTURE END LIST*
D10*
%TO.P,C5,1*%
%TO.N,+3.3V*%
X150062500Y-105825485D03*
%TO.P,C5,2*%
%TO.N,GND*%
X146937500Y-105825485D03*
%TD*%
D11*
%TO.P,U5,1,GND*%
%TO.N,GND*%
X87540000Y-111515485D03*
%TO.P,U5,2,IN*%
%TO.N,Net-(U5-IN)*%
X87540000Y-112785485D03*
%TO.P,U5,3,INH*%
%TO.N,Net-(U5-INH)*%
X87540000Y-114055485D03*
%TO.P,U5,4,OUT*%
%TO.N,P_plus*%
X87540000Y-115325485D03*
%TO.P,U5,5,SR*%
%TO.N,SR1*%
X87540000Y-116595485D03*
%TO.P,U5,6,IS*%
%TO.N,IS_hbridge1*%
X87540000Y-117865485D03*
%TO.P,U5,7,VS*%
%TO.N,Net-(MOSFET2-D)*%
X87540000Y-119135485D03*
D12*
%TO.P,U5,8,OUT__1*%
%TO.N,unconnected-(U5-OUT__1-Pad8)*%
X97500000Y-115325485D03*
%TD*%
D11*
%TO.P,U3,1,GND*%
%TO.N,GND*%
X87540000Y-93015485D03*
%TO.P,U3,2,IN*%
%TO.N,Net-(U3-IN)*%
X87540000Y-94285485D03*
%TO.P,U3,3,INH*%
%TO.N,Net-(U3-INH)*%
X87540000Y-95555485D03*
%TO.P,U3,4,OUT*%
%TO.N,P_minus*%
X87540000Y-96825485D03*
%TO.P,U3,5,SR*%
%TO.N,SR2*%
X87540000Y-98095485D03*
%TO.P,U3,6,IS*%
%TO.N,IS_hbridge2*%
X87540000Y-99365485D03*
%TO.P,U3,7,VS*%
%TO.N,Net-(MOSFET2-D)*%
X87540000Y-100635485D03*
D12*
%TO.P,U3,8,OUT__1*%
%TO.N,unconnected-(U3-OUT__1-Pad8)*%
X97500000Y-96825485D03*
%TD*%
D13*
%TO.P,L6,1,1*%
%TO.N,Net-(D6-K)*%
X169458100Y-74825485D03*
%TO.P,L6,2,2*%
%TO.N,+5V*%
X179541900Y-74825485D03*
%TD*%
D14*
%TO.P,Y1,1*%
%TO.N,Net-(U1-PF0)*%
X180000000Y-89825485D03*
%TO.P,Y1,2*%
%TO.N,Net-(U1-PF1)*%
X180000000Y-99325485D03*
%TD*%
D15*
%TO.P,C17,1*%
%TO.N,+3.3V*%
X191500000Y-86174495D03*
%TO.P,C17,2*%
%TO.N,GND*%
X194625000Y-86174495D03*
%TD*%
D16*
%TO.P,VR2,1,VIN*%
%TO.N,+12V*%
X159400000Y-65725485D03*
D17*
%TO.P,VR2,2,OUTPUT*%
%TO.N,Net-(D6-K)*%
X159400000Y-67425485D03*
%TO.P,VR2,3,GROUND*%
%TO.N,GND*%
X159400000Y-69125486D03*
%TO.P,VR2,4,FEEDBACK*%
%TO.N,+5V*%
X159400000Y-70825485D03*
%TO.P,VR2,5,~{ON}/OFF*%
%TO.N,GND*%
X159400000Y-72525485D03*
%TD*%
D18*
%TO.P,R9,1*%
%TO.N,+3.3V*%
X179400000Y-105662985D03*
%TO.P,R9,2*%
%TO.N,Net-(J3-Pad15)*%
X182500000Y-105662985D03*
%TD*%
%TO.P,R8,1*%
%TO.N,+3.3V*%
X196950000Y-74825485D03*
%TO.P,R8,2*%
%TO.N,Net-(R7-Pad1)*%
X200050000Y-74825485D03*
%TD*%
D10*
%TO.P,C20,1*%
%TO.N,+3.3VA*%
X164500000Y-122325485D03*
%TO.P,C20,2*%
%TO.N,Net-(U1-VREF+)*%
X161375000Y-122325485D03*
%TD*%
D19*
%TO.P,U1,1,VBAT*%
%TO.N,+3.3V*%
X163387876Y-107826697D03*
%TO.P,U1,2,PC13*%
%TO.N,unconnected-(U1-PC13-Pad2)*%
X163034322Y-107473143D03*
%TO.P,U1,3,PC14*%
%TO.N,unconnected-(U1-PC14-Pad3)*%
X162680769Y-107119590D03*
%TO.P,U1,4,PC15*%
%TO.N,unconnected-(U1-PC15-Pad4)*%
X162327215Y-106766036D03*
%TO.P,U1,5,PF0*%
%TO.N,Net-(U1-PF0)*%
X161973662Y-106412483D03*
%TO.P,U1,6,PF1*%
%TO.N,Net-(U1-PF1)*%
X161620109Y-106058930D03*
%TO.P,U1,7,PG10*%
%TO.N,/NRST*%
X161266555Y-105705376D03*
%TO.P,U1,8,PA0*%
%TO.N,IS_hbridge1*%
X160913002Y-105351823D03*
%TO.P,U1,9,PA1*%
%TO.N,IS_hbridge2*%
X160559449Y-104998270D03*
%TO.P,U1,10,PA2*%
%TO.N,unconnected-(U1-PA2-Pad10)*%
X160205895Y-104644716D03*
%TO.P,U1,11,PA3*%
%TO.N,unconnected-(U1-PA3-Pad11)*%
X159852342Y-104291163D03*
%TO.P,U1,12,PA4*%
%TO.N,PA4*%
X159498788Y-103937609D03*
D20*
%TO.P,U1,13,PA5*%
%TO.N,PA5*%
X157501212Y-103937609D03*
%TO.P,U1,14,PA6*%
%TO.N,PA10*%
X157147658Y-104291163D03*
%TO.P,U1,15,PA7*%
%TO.N,PA9*%
X156794105Y-104644716D03*
%TO.P,U1,16,PB0*%
%TO.N,PB0*%
X156440551Y-104998270D03*
%TO.P,U1,17,PB1*%
%TO.N,PB1*%
X156086998Y-105351823D03*
%TO.P,U1,18,PB2*%
%TO.N,PB2*%
X155733445Y-105705376D03*
%TO.P,U1,19,VSSA*%
%TO.N,GND*%
X155379891Y-106058930D03*
%TO.P,U1,20,VREF+*%
%TO.N,Net-(U1-VREF+)*%
X155026338Y-106412483D03*
%TO.P,U1,21,VDDA*%
%TO.N,+3.3VA*%
X154672785Y-106766036D03*
%TO.P,U1,22,PB10*%
%TO.N,PB10*%
X154319231Y-107119590D03*
%TO.P,U1,23,VSS*%
%TO.N,GND*%
X153965678Y-107473143D03*
%TO.P,U1,24,VDD*%
%TO.N,+3.3V*%
X153612124Y-107826697D03*
D19*
%TO.P,U1,25,PB11*%
%TO.N,PB11*%
X153612124Y-109824273D03*
%TO.P,U1,26,PB12*%
%TO.N,PB12*%
X153965678Y-110177827D03*
%TO.P,U1,27,PB13*%
%TO.N,PB13*%
X154319231Y-110531380D03*
%TO.P,U1,28,PB14*%
%TO.N,unconnected-(U1-PB14-Pad28)*%
X154672785Y-110884934D03*
%TO.P,U1,29,PB15*%
%TO.N,unconnected-(U1-PB15-Pad29)*%
X155026338Y-111238487D03*
%TO.P,U1,30,PA8*%
%TO.N,PA8*%
X155379891Y-111592040D03*
%TO.P,U1,31,PA9*%
%TO.N,PA9*%
X155733445Y-111945594D03*
%TO.P,U1,32,PA10*%
%TO.N,PA10*%
X156086998Y-112299147D03*
%TO.P,U1,33,PA11*%
%TO.N,PA11*%
X156440551Y-112652700D03*
%TO.P,U1,34,PA12*%
%TO.N,PA12*%
X156794105Y-113006254D03*
%TO.P,U1,35,VSS*%
%TO.N,GND*%
X157147658Y-113359807D03*
%TO.P,U1,36,VDD*%
%TO.N,+3.3V*%
X157501212Y-113713361D03*
D20*
%TO.P,U1,37,PA13*%
%TO.N,Net-(J4-Pin_3)*%
X159498788Y-113713361D03*
%TO.P,U1,38,PA14*%
%TO.N,Net-(J4-Pin_2)*%
X159852342Y-113359807D03*
%TO.P,U1,39,PA15*%
%TO.N,unconnected-(U1-PA15-Pad39)*%
X160205895Y-113006254D03*
%TO.P,U1,40,PB3*%
%TO.N,PB3*%
X160559449Y-112652700D03*
%TO.P,U1,41,PB4*%
%TO.N,PB4*%
X160913002Y-112299147D03*
%TO.P,U1,42,PB5*%
%TO.N,PB5*%
X161266555Y-111945594D03*
%TO.P,U1,43,PB6*%
%TO.N,PB6*%
X161620109Y-111592040D03*
%TO.P,U1,44,PB7*%
%TO.N,PB7*%
X161973662Y-111238487D03*
%TO.P,U1,45,PB8*%
%TO.N,/BOOT0*%
X162327215Y-110884934D03*
%TO.P,U1,46,PB9*%
%TO.N,PB9*%
X162680769Y-110531380D03*
%TO.P,U1,47,VSS*%
%TO.N,GND*%
X163034322Y-110177827D03*
%TO.P,U1,48,VDD*%
%TO.N,+3.3V*%
X163387876Y-109824273D03*
%TD*%
D18*
%TO.P,R4,1*%
%TO.N,+5V*%
X143950000Y-132325485D03*
%TO.P,R4,2*%
%TO.N,PA12*%
X147050000Y-132325485D03*
%TD*%
D21*
%TO.P,POT2,1,CCW*%
%TO.N,GND*%
X180500000Y-137825485D03*
D22*
%TO.P,POT2,2,Wiper*%
%TO.N,Net-(POT2-Wiper)*%
X181500000Y-134575485D03*
D21*
%TO.P,POT2,3,CW*%
%TO.N,+5V*%
X182500000Y-137825485D03*
%TD*%
D23*
%TO.P,J8,1,1*%
%TO.N,GND*%
X95767000Y-63825485D03*
D24*
%TO.P,J8,2,2*%
%TO.N,+12V*%
X100767000Y-63825485D03*
%TD*%
D25*
%TO.P,R5,1*%
%TO.N,+3.3V*%
X150500000Y-92775485D03*
%TO.P,R5,2*%
%TO.N,/NRST*%
X150500000Y-95875485D03*
%TD*%
D15*
%TO.P,C16,1*%
%TO.N,P_minus*%
X85375000Y-86825485D03*
%TO.P,C16,2*%
%TO.N,Net-(MOSFET2-D)*%
X88500000Y-86825485D03*
%TD*%
D26*
%TO.P,C37,1*%
%TO.N,GND*%
X128500000Y-106325485D03*
%TO.P,C37,2*%
%TO.N,IS_hbridge2*%
X128500000Y-103200485D03*
%TD*%
D18*
%TO.P,R3,1*%
%TO.N,+5V*%
X135950000Y-132325485D03*
%TO.P,R3,2*%
%TO.N,PA11*%
X139050000Y-132325485D03*
%TD*%
D23*
%TO.P,J1,1,1*%
%TO.N,Net-(J1-Pad1)*%
X135534000Y-49825485D03*
D24*
%TO.P,J1,2,2*%
%TO.N,GND*%
X140534000Y-49825485D03*
%TD*%
D15*
%TO.P,C34,1*%
%TO.N,+3.3V*%
X141875000Y-89867385D03*
%TO.P,C34,2*%
%TO.N,GND*%
X145000000Y-89867385D03*
%TD*%
D27*
%TO.P,C9,1*%
%TO.N,+3.3VA*%
X162750000Y-130925485D03*
%TO.P,C9,2*%
%TO.N,GND*%
X162750000Y-134050485D03*
%TD*%
D26*
%TO.P,C40,1*%
%TO.N,Net-(MOSFET2-D)*%
X121000000Y-81387985D03*
%TO.P,C40,2*%
%TO.N,GND*%
X121000000Y-78262985D03*
%TD*%
%TO.P,C11,1*%
%TO.N,GND*%
X122500000Y-134325485D03*
%TO.P,C11,2*%
%TO.N,SR1*%
X122500000Y-131200485D03*
%TD*%
D10*
%TO.P,C8,1*%
%TO.N,+3.3VA*%
X164062500Y-127487985D03*
%TO.P,C8,2*%
%TO.N,GND*%
X160937500Y-127487985D03*
%TD*%
D28*
%TO.P,FB1,1*%
%TO.N,+3.3VA*%
X167960000Y-128825485D03*
%TO.P,FB1,2*%
%TO.N,+3.3V*%
X173040000Y-128825485D03*
%TD*%
D27*
%TO.P,C35,1*%
%TO.N,GND*%
X71500000Y-91262985D03*
%TO.P,C35,2*%
%TO.N,P_minus*%
X71500000Y-94387985D03*
%TD*%
D16*
%TO.P,U8,1,VIN*%
%TO.N,+12V*%
X149000000Y-65767385D03*
D17*
%TO.P,U8,2,OUT*%
%TO.N,Net-(D7-K)*%
X149000000Y-67467385D03*
%TO.P,U8,3,GND*%
%TO.N,GND*%
X149000000Y-69167386D03*
%TO.P,U8,4,FB*%
%TO.N,+3.3V*%
X149000000Y-70867385D03*
%TO.P,U8,5,ON_OFF_N*%
%TO.N,GND*%
X149000000Y-72567385D03*
%TD*%
D23*
%TO.P,J2,1,1*%
%TO.N,GND*%
X139000000Y-142325485D03*
D24*
%TO.P,J2,2,2*%
%TO.N,PA11*%
X134000000Y-142325485D03*
%TO.P,J2,3,3*%
%TO.N,+5V*%
X129000000Y-142325485D03*
%TD*%
D25*
%TO.P,R6,1*%
%TO.N,GND*%
X174250000Y-101275485D03*
%TO.P,R6,2*%
%TO.N,/BOOT0*%
X174250000Y-104375485D03*
%TD*%
D29*
%TO.P,U2,1,NC*%
%TO.N,GND*%
X196041400Y-62499990D03*
%TO.P,U2,2,A*%
%TO.N,Net-(U2-A)*%
X196041400Y-61849991D03*
%TO.P,U2,3,GND*%
%TO.N,GND*%
X196041400Y-61199992D03*
%TO.P,U2,4,Y*%
%TO.N,PA5*%
X193958600Y-61199992D03*
%TO.P,U2,5,VCC*%
%TO.N,+3.3V*%
X193958600Y-62499990D03*
%TD*%
D10*
%TO.P,C7,1*%
%TO.N,+3.3V*%
X147500000Y-115825485D03*
%TO.P,C7,2*%
%TO.N,GND*%
X144375000Y-115825485D03*
%TD*%
%TO.P,C36,1*%
%TO.N,+12V*%
X95562500Y-83325485D03*
%TO.P,C36,2*%
%TO.N,GND*%
X92437500Y-83325485D03*
%TD*%
%TO.P,C18,1*%
%TO.N,Net-(U2-A)*%
X200125000Y-67499990D03*
%TO.P,C18,2*%
%TO.N,GND*%
X197000000Y-67499990D03*
%TD*%
D15*
%TO.P,C2,1*%
%TO.N,Net-(U1-PF0)*%
X184437500Y-90575485D03*
%TO.P,C2,2*%
%TO.N,GND*%
X187562500Y-90575485D03*
%TD*%
%TO.P,C3,1*%
%TO.N,+3.3V*%
X166437500Y-109325485D03*
%TO.P,C3,2*%
%TO.N,GND*%
X169562500Y-109325485D03*
%TD*%
D30*
%TO.P,D7,1,K*%
%TO.N,Net-(D7-K)*%
X150000000Y-78829285D03*
D31*
%TO.P,D7,2,A*%
%TO.N,GND*%
X150000000Y-88989285D03*
%TD*%
D32*
%TO.P,SW1,1,1*%
%TO.N,Net-(R1-Pad2)*%
X209500000Y-58500000D03*
%TO.P,SW1,2,2*%
%TO.N,GND*%
X214500000Y-58500000D03*
%TO.P,SW1,3,3*%
X214500000Y-63499990D03*
%TO.P,SW1,4,4*%
%TO.N,Net-(R1-Pad2)*%
X209500000Y-63499990D03*
%TD*%
D33*
%TO.P,R10,1*%
%TO.N,PA10*%
X128500000Y-78375485D03*
%TO.P,R10,2*%
%TO.N,Net-(Q2-Pad1)*%
X128500000Y-75275485D03*
%TD*%
D25*
%TO.P,R19,1*%
%TO.N,IS_hbridge1*%
X123000000Y-123787985D03*
%TO.P,R19,2*%
%TO.N,GND*%
X123000000Y-126887985D03*
%TD*%
D34*
%TO.P,R7,1*%
%TO.N,Net-(R7-Pad1)*%
X201500000Y-81174495D03*
%TO.P,R7,2*%
%TO.N,Net-(U6-A)*%
X198400000Y-81174495D03*
%TD*%
D35*
%TO.P,Q2,1,1*%
%TO.N,Net-(Q2-Pad1)*%
X129230000Y-70665585D03*
%TO.P,Q2,2,2*%
%TO.N,GND*%
X131770000Y-70665585D03*
%TO.P,Q2,3,3*%
%TO.N,Net-(J1-Pad1)*%
X131770000Y-63985385D03*
%TO.P,Q2,4,4*%
%TO.N,+12V*%
X129230000Y-63985385D03*
%TD*%
D26*
%TO.P,C32,1*%
%TO.N,+5V*%
X182500000Y-66387985D03*
%TO.P,C32,2*%
%TO.N,GND*%
X182500000Y-63262985D03*
%TD*%
%TO.P,C13,1*%
%TO.N,GND*%
X118000000Y-126887985D03*
%TO.P,C13,2*%
%TO.N,IS_hbridge1*%
X118000000Y-123762985D03*
%TD*%
D27*
%TO.P,C39,1*%
%TO.N,Net-(MOSFET2-D)*%
X77500000Y-140262985D03*
%TO.P,C39,2*%
%TO.N,GND*%
X77500000Y-143387985D03*
%TD*%
D25*
%TO.P,R21,1*%
%TO.N,IS_hbridge2*%
X132500000Y-103200485D03*
%TO.P,R21,2*%
%TO.N,GND*%
X132500000Y-106300485D03*
%TD*%
D36*
%TO.P,C38,1*%
%TO.N,Net-(MOSFET2-D)*%
X77835150Y-131825485D03*
%TO.P,C38,2*%
%TO.N,GND*%
X72831350Y-131825485D03*
%TD*%
D25*
%TO.P,R14,1*%
%TO.N,SR2*%
X123000000Y-98775485D03*
%TO.P,R14,2*%
%TO.N,GND*%
X123000000Y-101875485D03*
%TD*%
D27*
%TO.P,C19,1*%
%TO.N,GND*%
X154500000Y-93200485D03*
%TO.P,C19,2*%
%TO.N,/NRST*%
X154500000Y-96325485D03*
%TD*%
D37*
%TO.P,J4,1,Pin_1*%
%TO.N,GND*%
X155270000Y-127325485D03*
D38*
%TO.P,J4,2,Pin_2*%
%TO.N,Net-(J4-Pin_2)*%
X154000000Y-127325485D03*
%TO.P,J4,3,Pin_3*%
%TO.N,Net-(J4-Pin_3)*%
X152730000Y-127325485D03*
%TO.P,J4,4,Pin_4*%
%TO.N,+3.3V*%
X151460000Y-127325485D03*
%TD*%
D34*
%TO.P,R18,1*%
%TO.N,PA8*%
X124550000Y-118825485D03*
%TO.P,R18,2*%
%TO.N,Net-(U5-IN)*%
X121450000Y-118825485D03*
%TD*%
D26*
%TO.P,C12,1*%
%TO.N,GND*%
X119000000Y-101900485D03*
%TO.P,C12,2*%
%TO.N,SR2*%
X119000000Y-98775485D03*
%TD*%
D10*
%TO.P,C4,1*%
%TO.N,+3.3V*%
X157125000Y-117825485D03*
%TO.P,C4,2*%
%TO.N,GND*%
X154000000Y-117825485D03*
%TD*%
D30*
%TO.P,D6,1,K*%
%TO.N,Net-(D6-K)*%
X167420000Y-64825485D03*
D31*
%TO.P,D6,2,A*%
%TO.N,GND*%
X177580000Y-64825485D03*
%TD*%
D39*
%TO.P,U4,1,CATHODE*%
%TO.N,Net-(MOSFET2-D)*%
X116000000Y-88440785D03*
D40*
%TO.P,U4,2,ANODE*%
%TO.N,Net-(MOSFET2-G)*%
X116000000Y-70813185D03*
%TD*%
D33*
%TO.P,R20,1*%
%TO.N,Net-(MOSFET2-G)*%
X122000000Y-72325485D03*
%TO.P,R20,2*%
%TO.N,GND*%
X122000000Y-69225485D03*
%TD*%
D41*
%TO.P,L7,1,1*%
%TO.N,Net-(D7-K)*%
X138500000Y-74825485D03*
%TO.P,L7,2,2*%
%TO.N,+3.3V*%
X138500000Y-84909285D03*
%TD*%
D26*
%TO.P,C15,1*%
%TO.N,GND*%
X73000000Y-121387985D03*
%TO.P,C15,2*%
%TO.N,P_plus*%
X73000000Y-118262985D03*
%TD*%
D25*
%TO.P,R13,1*%
%TO.N,SR1*%
X117500000Y-131212985D03*
%TO.P,R13,2*%
%TO.N,GND*%
X117500000Y-134312985D03*
%TD*%
D26*
%TO.P,C10,1*%
%TO.N,+3.3V*%
X176500000Y-128450485D03*
%TO.P,C10,2*%
%TO.N,GND*%
X176500000Y-125325485D03*
%TD*%
D34*
%TO.P,R2,1*%
%TO.N,Net-(R1-Pad2)*%
X203550000Y-62499990D03*
%TO.P,R2,2*%
%TO.N,Net-(U2-A)*%
X200450000Y-62499990D03*
%TD*%
D32*
%TO.P,SW3,1,1*%
%TO.N,Net-(R7-Pad1)*%
X209500000Y-78825495D03*
%TO.P,SW3,2,2*%
%TO.N,GND*%
X214500000Y-78825495D03*
%TO.P,SW3,3,3*%
X214500000Y-83825485D03*
%TO.P,SW3,4,4*%
%TO.N,Net-(R7-Pad1)*%
X209500000Y-83825485D03*
%TD*%
D23*
%TO.P,J9,1,1*%
%TO.N,P_minus*%
X76500000Y-102592485D03*
D24*
%TO.P,J9,2,2*%
%TO.N,P_plus*%
X76500000Y-107592485D03*
%TD*%
D42*
%TO.P,MOSFET2,1,G*%
%TO.N,Net-(MOSFET2-G)*%
X108790000Y-78599185D03*
D43*
%TO.P,MOSFET2,2,D*%
%TO.N,Net-(MOSFET2-D)*%
X106500000Y-85825485D03*
D42*
%TO.P,MOSFET2,3,S*%
%TO.N,+12V*%
X104210000Y-78599185D03*
%TD*%
D15*
%TO.P,C1,1*%
%TO.N,Net-(U1-PF1)*%
X184437500Y-96575485D03*
%TO.P,C1,2*%
%TO.N,GND*%
X187562500Y-96575485D03*
%TD*%
D10*
%TO.P,C21,1*%
%TO.N,Net-(U6-A)*%
X201625000Y-86174495D03*
%TO.P,C21,2*%
%TO.N,GND*%
X198500000Y-86174495D03*
%TD*%
D18*
%TO.P,R1,1*%
%TO.N,+3.3V*%
X199450000Y-56825485D03*
%TO.P,R1,2*%
%TO.N,Net-(R1-Pad2)*%
X202550000Y-56825485D03*
%TD*%
D34*
%TO.P,R17,1*%
%TO.N,PA9*%
X123550000Y-89825485D03*
%TO.P,R17,2*%
%TO.N,Net-(U3-IN)*%
X120450000Y-89825485D03*
%TD*%
D15*
%TO.P,C22,1*%
%TO.N,+3.3V*%
X190437500Y-67499990D03*
%TO.P,C22,2*%
%TO.N,GND*%
X193562500Y-67499990D03*
%TD*%
D10*
%TO.P,C33,1*%
%TO.N,+12V*%
X142000000Y-63825485D03*
%TO.P,C33,2*%
%TO.N,GND*%
X138875000Y-63825485D03*
%TD*%
D15*
%TO.P,C6,1*%
%TO.N,+3.3V*%
X167500000Y-104325485D03*
%TO.P,C6,2*%
%TO.N,GND*%
X170625000Y-104325485D03*
%TD*%
D44*
%TO.P,J3,01,01*%
%TO.N,GND*%
X216500000Y-126715485D03*
D45*
%TO.P,J3,02,02*%
%TO.N,+5V*%
X216500000Y-125445485D03*
%TO.P,J3,03,03*%
%TO.N,Net-(POT2-Wiper)*%
X216500000Y-124175485D03*
%TO.P,J3,04,04*%
%TO.N,PB0*%
X216500000Y-122905485D03*
%TO.P,J3,05,05*%
%TO.N,PB1*%
X216500000Y-121635485D03*
%TO.P,J3,06,06*%
%TO.N,PB2*%
X216500000Y-120365485D03*
%TO.P,J3,07,07*%
%TO.N,PB3*%
X216500000Y-119095485D03*
%TO.P,J3,08,08*%
%TO.N,PB4*%
X216500000Y-117825485D03*
%TO.P,J3,09,09*%
%TO.N,PB5*%
X216500000Y-116555485D03*
%TO.P,J3,10,10*%
%TO.N,PB6*%
X216500000Y-115285485D03*
%TO.P,J3,11,11*%
%TO.N,PB7*%
X216500000Y-114015485D03*
%TO.P,J3,12,12*%
%TO.N,PB9*%
X216500000Y-112745485D03*
%TO.P,J3,13,13*%
%TO.N,PB10*%
X216500000Y-111475485D03*
%TO.P,J3,14,14*%
%TO.N,PB13*%
X216500000Y-110205485D03*
%TO.P,J3,15,15*%
%TO.N,Net-(J3-Pad15)*%
X216500000Y-108935485D03*
%TD*%
D27*
%TO.P,C14,1*%
%TO.N,P_plus*%
X80000000Y-118262985D03*
%TO.P,C14,2*%
%TO.N,Net-(MOSFET2-D)*%
X80000000Y-121387985D03*
%TD*%
D34*
%TO.P,R15,1*%
%TO.N,PB11*%
X124550000Y-113325485D03*
%TO.P,R15,2*%
%TO.N,Net-(U5-INH)*%
X121450000Y-113325485D03*
%TD*%
D10*
%TO.P,C31,1*%
%TO.N,+12V*%
X142562500Y-68825485D03*
%TO.P,C31,2*%
%TO.N,GND*%
X139437500Y-68825485D03*
%TD*%
D23*
%TO.P,J5,1,1*%
%TO.N,GND*%
X156500000Y-142325485D03*
D24*
%TO.P,J5,2,2*%
%TO.N,PA12*%
X151500000Y-142325485D03*
%TO.P,J5,3,3*%
%TO.N,+5V*%
X146500000Y-142325485D03*
%TD*%
D29*
%TO.P,U6,1,NC*%
%TO.N,GND*%
X193582800Y-81174495D03*
%TO.P,U6,2,A*%
%TO.N,Net-(U6-A)*%
X193582800Y-80524496D03*
%TO.P,U6,3,GND*%
%TO.N,GND*%
X193582800Y-79874497D03*
%TO.P,U6,4,Y*%
%TO.N,PA4*%
X191500000Y-79874497D03*
%TO.P,U6,5,VCC*%
%TO.N,+3.3V*%
X191500000Y-81174495D03*
%TD*%
D34*
%TO.P,R16,1*%
%TO.N,PB12*%
X123450000Y-93825485D03*
%TO.P,R16,2*%
%TO.N,Net-(U3-INH)*%
X120350000Y-93825485D03*
%TD*%
D46*
%TO.N,GND*%
X151000000Y-110500000D03*
X151500000Y-107500000D03*
X190500000Y-90325485D03*
X214500000Y-72825485D03*
X153000000Y-90825485D03*
D47*
X71500000Y-88825485D03*
X121000000Y-75825485D03*
X94500000Y-75825485D03*
D46*
X154000000Y-135825485D03*
X196500000Y-88825485D03*
D47*
X177500000Y-137825485D03*
D46*
X181500000Y-127825485D03*
D47*
X179500000Y-60325485D03*
D46*
X125000000Y-106825485D03*
X90500000Y-110825485D03*
D47*
X71500000Y-138825485D03*
D46*
X123000000Y-128825485D03*
X158000000Y-107000000D03*
D47*
X90500000Y-65825485D03*
D46*
X195500000Y-78325485D03*
X163000000Y-135825485D03*
D47*
X153500000Y-76825485D03*
D46*
X120000000Y-135825485D03*
X144500000Y-118325485D03*
D47*
X154500000Y-69325485D03*
X94500000Y-70825485D03*
X70000000Y-125325485D03*
X90500000Y-60325485D03*
X214500000Y-130325485D03*
X90500000Y-75825485D03*
D46*
X171000000Y-109325485D03*
X198000000Y-59825485D03*
D47*
X158500000Y-77325485D03*
X87000000Y-81325485D03*
X136000000Y-69325485D03*
D46*
X151000000Y-120325485D03*
X87500000Y-91325485D03*
X165000000Y-111325485D03*
D47*
X90500000Y-70825485D03*
D46*
X159000000Y-127325485D03*
X126500000Y-100825485D03*
D47*
X122000000Y-66825485D03*
D46*
X142000000Y-135825485D03*
X195500000Y-65325485D03*
D47*
X145500000Y-52325485D03*
X73500000Y-143325485D03*
D46*
X145000000Y-105825485D03*
X214500000Y-69825485D03*
X177000000Y-106325485D03*
%TO.N,Net-(U1-PF0)*%
X168500000Y-100325485D03*
X170000000Y-98325485D03*
%TO.N,+3.3V*%
X166500000Y-125325485D03*
X158500000Y-118825485D03*
X149500000Y-113825485D03*
X147000000Y-95825485D03*
X148500000Y-104325485D03*
X179000000Y-85825485D03*
X150000000Y-108074658D03*
X171000000Y-100825485D03*
X184500000Y-87825485D03*
X149000000Y-121825485D03*
D47*
X143000000Y-81325485D03*
D46*
X185500000Y-99325485D03*
X168000000Y-91325485D03*
X173500000Y-85825485D03*
D47*
X153500000Y-73325485D03*
D46*
X146500000Y-118825485D03*
%TO.N,+3.3VA*%
X144000000Y-107325485D03*
X160000000Y-124825485D03*
%TO.N,SR1*%
X92000000Y-116825485D03*
X118500000Y-128825485D03*
%TO.N,SR2*%
X115500000Y-98325485D03*
X92000000Y-98325485D03*
%TO.N,IS_hbridge1*%
X159500000Y-98825485D03*
X115500000Y-118825485D03*
X140000000Y-99325485D03*
X137000000Y-114325485D03*
X91000000Y-117825485D03*
X163500000Y-101825485D03*
D47*
%TO.N,P_plus*%
X90500000Y-115325485D03*
X92500000Y-115325485D03*
X81500000Y-111825485D03*
X76500000Y-111500000D03*
X71000000Y-111325485D03*
X73500000Y-115325485D03*
X82500000Y-108000000D03*
X84000000Y-115325485D03*
X79000000Y-112825485D03*
X79000000Y-115325485D03*
X73500000Y-112825485D03*
X70500000Y-107825485D03*
%TO.N,P_minus*%
X82000000Y-99000000D03*
X73500000Y-96825485D03*
X79500000Y-104000000D03*
X79500000Y-96825485D03*
X90500000Y-96825485D03*
X84500000Y-96825485D03*
X71000000Y-99000000D03*
X92500000Y-96825485D03*
X76500000Y-98500000D03*
X73500000Y-104000000D03*
D46*
%TO.N,/NRST*%
X164000000Y-100825485D03*
X161500000Y-98325485D03*
%TO.N,Net-(U1-VREF+)*%
X155500000Y-109325485D03*
X161500000Y-115825485D03*
%TO.N,IS_hbridge2*%
X162500000Y-102325485D03*
X115500000Y-100325485D03*
X134000000Y-101325485D03*
X91500000Y-99325485D03*
X142000000Y-100325485D03*
X160000000Y-99825485D03*
%TO.N,PA10*%
X148500000Y-97825485D03*
X156000000Y-100825485D03*
%TO.N,Net-(U5-INH)*%
X116000000Y-113825485D03*
X91500000Y-113825485D03*
%TO.N,Net-(U3-INH)*%
X115500000Y-95325485D03*
X92000000Y-95325485D03*
%TO.N,Net-(U3-IN)*%
X92500000Y-93825485D03*
X115500000Y-93325485D03*
%TO.N,Net-(U5-IN)*%
X92000000Y-112825485D03*
X118500000Y-114825485D03*
%TO.N,PB1*%
X153000000Y-104325485D03*
X168000000Y-119325485D03*
%TO.N,PB0*%
X176500000Y-122825485D03*
X152500000Y-103325485D03*
%TO.N,PB2*%
X152000000Y-104825485D03*
X165500000Y-118825485D03*
%TO.N,PB13*%
X193500000Y-110325485D03*
X153000000Y-111825485D03*
%TO.N,PB10*%
X175500000Y-111825485D03*
X152000000Y-106325485D03*
D47*
%TO.N,Net-(J1-Pad1)*%
X134500000Y-56825485D03*
X134500000Y-61325485D03*
%TD*%
D48*
%TO.N,Net-(U1-PF1)*%
X161620109Y-106058930D02*
X168353554Y-99325485D01*
X184437500Y-96575485D02*
X181687500Y-99325485D01*
X181687500Y-99325485D02*
X180000000Y-99325485D01*
X168353554Y-99325485D02*
X180000000Y-99325485D01*
%TO.N,GND*%
X187562500Y-90575485D02*
X187562500Y-96575485D01*
D49*
X182500000Y-63262985D02*
X182437500Y-63262985D01*
D48*
X156000000Y-115325485D02*
X155500000Y-115825485D01*
X214500000Y-58500000D02*
X214500000Y-63499990D01*
X170625000Y-104325485D02*
X173675000Y-101275485D01*
D49*
X77500000Y-143387985D02*
X73562500Y-143387985D01*
X89000000Y-83325485D02*
X87000000Y-81325485D01*
X159400000Y-72525485D02*
X159400000Y-76425485D01*
X182437500Y-63262985D02*
X179500000Y-60325485D01*
D48*
X119000000Y-101900485D02*
X122975000Y-101900485D01*
D49*
X179142500Y-63262985D02*
X177580000Y-64825485D01*
D48*
X122500000Y-134325485D02*
X120000000Y-134325485D01*
X196041400Y-62499990D02*
X196041400Y-64784085D01*
X128525000Y-106300485D02*
X128500000Y-106325485D01*
D49*
X151050610Y-74376095D02*
X153449390Y-76774875D01*
D48*
X154500000Y-92325485D02*
X153000000Y-90825485D01*
X214500000Y-83825485D02*
X214500000Y-78825495D01*
X187562500Y-90575485D02*
X190250000Y-90575485D01*
X169562500Y-109325485D02*
X171000000Y-109325485D01*
X125450000Y-101875485D02*
X126500000Y-100825485D01*
D49*
X136500000Y-68825485D02*
X136000000Y-69325485D01*
X154341901Y-69167386D02*
X154500000Y-69325485D01*
D48*
X162750000Y-134050485D02*
X162750000Y-135575485D01*
X152535955Y-107048504D02*
X152084459Y-107500000D01*
X139000000Y-138825485D02*
X142000000Y-135825485D01*
D49*
X73000000Y-121387985D02*
X73000000Y-122325485D01*
X149000000Y-74376095D02*
X151050610Y-74376095D01*
X73562500Y-143387985D02*
X73500000Y-143325485D01*
X122000000Y-69225485D02*
X122000000Y-66825485D01*
D48*
X123000000Y-101875485D02*
X125450000Y-101875485D01*
X196500000Y-86174495D02*
X198500000Y-86174495D01*
D49*
X72831350Y-137494135D02*
X71500000Y-138825485D01*
D48*
X177000000Y-104025485D02*
X177000000Y-106325485D01*
X117512500Y-134325485D02*
X117500000Y-134312985D01*
D49*
X216500000Y-126715485D02*
X216500000Y-128325485D01*
D48*
X153371270Y-106878737D02*
X152705722Y-106878737D01*
X159162500Y-127487985D02*
X159000000Y-127325485D01*
X197000000Y-67499990D02*
X197000000Y-66825485D01*
X125500000Y-106325485D02*
X125000000Y-106825485D01*
X155500000Y-115825485D02*
X155500000Y-116325485D01*
X179000000Y-125325485D02*
X181500000Y-127825485D01*
X193562500Y-67262985D02*
X195500000Y-65325485D01*
X139000000Y-142325485D02*
X139000000Y-138825485D01*
X144375000Y-115825485D02*
X144375000Y-118200485D01*
X87540000Y-93015485D02*
X87540000Y-91365485D01*
X193562500Y-67499990D02*
X193562500Y-67262985D01*
D49*
X131770000Y-70665585D02*
X134659900Y-70665585D01*
X145000000Y-89867385D02*
X149121900Y-89867385D01*
D48*
X193582800Y-79874497D02*
X193950988Y-79874497D01*
D49*
X72831350Y-131825485D02*
X72831350Y-137494135D01*
X149000000Y-72567385D02*
X149000000Y-74376095D01*
D48*
X173675000Y-101275485D02*
X174250000Y-101275485D01*
D49*
X71500000Y-91262985D02*
X71500000Y-88825485D01*
D48*
X144375000Y-118200485D02*
X144500000Y-118325485D01*
X214500000Y-63499990D02*
X214500000Y-69825485D01*
X150000000Y-88989285D02*
X151836200Y-90825485D01*
X196500000Y-86174495D02*
X196500000Y-88825485D01*
X155379891Y-106058930D02*
X156320961Y-107000000D01*
X190250000Y-90575485D02*
X190500000Y-90325485D01*
X194625000Y-86174495D02*
X196500000Y-86174495D01*
X156320961Y-107000000D02*
X158000000Y-107000000D01*
X156500000Y-142325485D02*
X156500000Y-138325485D01*
D49*
X149000000Y-69167386D02*
X154341901Y-69167386D01*
X180500000Y-137825485D02*
X177500000Y-137825485D01*
D48*
X163034322Y-110177827D02*
X164181980Y-111325485D01*
X151836200Y-90825485D02*
X153000000Y-90825485D01*
X196041400Y-61199992D02*
X196625493Y-61199992D01*
X174250000Y-101275485D02*
X177000000Y-104025485D01*
X132500000Y-106300485D02*
X128525000Y-106300485D01*
X87540000Y-91365485D02*
X87500000Y-91325485D01*
D49*
X134659900Y-70665585D02*
X136000000Y-69325485D01*
D48*
X193582800Y-81174495D02*
X193582800Y-85132295D01*
X118000000Y-126887985D02*
X123000000Y-126887985D01*
X156500000Y-138325485D02*
X154000000Y-135825485D01*
D49*
X138875000Y-63825485D02*
X138875000Y-68262985D01*
D48*
X122975000Y-101900485D02*
X123000000Y-101875485D01*
X193582800Y-85132295D02*
X194625000Y-86174495D01*
X155500000Y-116325485D02*
X154000000Y-117825485D01*
X146937500Y-105825485D02*
X145000000Y-105825485D01*
X151500000Y-120325485D02*
X151000000Y-120325485D01*
X160937500Y-127487985D02*
X159162500Y-127487985D01*
X153965678Y-107473143D02*
X153371270Y-106878737D01*
X87540000Y-111515485D02*
X89810000Y-111515485D01*
X162750000Y-135575485D02*
X163000000Y-135825485D01*
X157147658Y-113359807D02*
X156000000Y-114507465D01*
X164181980Y-111325485D02*
X165000000Y-111325485D01*
D49*
X143000000Y-49825485D02*
X145500000Y-52325485D01*
X182500000Y-63262985D02*
X179142500Y-63262985D01*
D48*
X154500000Y-93200485D02*
X154500000Y-92325485D01*
D49*
X159400000Y-69125486D02*
X154699999Y-69125486D01*
X149121900Y-89867385D02*
X150000000Y-88989285D01*
D48*
X193950988Y-79874497D02*
X195500000Y-78325485D01*
X128500000Y-106325485D02*
X125500000Y-106325485D01*
D49*
X216500000Y-126715485D02*
X216110000Y-126715485D01*
X92437500Y-83325485D02*
X89000000Y-83325485D01*
D48*
X196625493Y-61199992D02*
X198000000Y-59825485D01*
D49*
X140534000Y-49825485D02*
X143000000Y-49825485D01*
X121000000Y-78262985D02*
X121000000Y-75825485D01*
D48*
X120000000Y-134325485D02*
X117512500Y-134325485D01*
X152084459Y-107500000D02*
X151500000Y-107500000D01*
D49*
X73000000Y-122325485D02*
X70000000Y-125325485D01*
D48*
X155270000Y-127325485D02*
X159000000Y-127325485D01*
X89810000Y-111515485D02*
X90500000Y-110825485D01*
X214500000Y-78825495D02*
X214500000Y-72825485D01*
X123000000Y-126887985D02*
X123000000Y-128825485D01*
X120000000Y-134325485D02*
X120000000Y-135825485D01*
D49*
X138875000Y-68262985D02*
X139437500Y-68825485D01*
X139437500Y-68825485D02*
X136500000Y-68825485D01*
X216500000Y-128325485D02*
X214500000Y-130325485D01*
D48*
X152705722Y-106878737D02*
X152535955Y-107048504D01*
X156000000Y-114507465D02*
X156000000Y-115325485D01*
X154000000Y-117825485D02*
X151500000Y-120325485D01*
X196041400Y-64784085D02*
X195500000Y-65325485D01*
X176500000Y-125325485D02*
X179000000Y-125325485D01*
D49*
X154699999Y-69125486D02*
X154500000Y-69325485D01*
D48*
X155379891Y-106058930D02*
X156200000Y-106879039D01*
X197000000Y-66825485D02*
X195500000Y-65325485D01*
D49*
X159400000Y-76425485D02*
X158500000Y-77325485D01*
X153449390Y-76774875D02*
X153500000Y-76825485D01*
D48*
%TO.N,Net-(U1-PF0)*%
X165469670Y-103355815D02*
X168500000Y-100325485D01*
X165030330Y-103355815D02*
X165469670Y-103355815D01*
X178500000Y-89825485D02*
X180000000Y-89825485D01*
X184437500Y-90575485D02*
X183687500Y-89825485D01*
X170000000Y-98325485D02*
X178500000Y-89825485D01*
X161973662Y-106412483D02*
X165030330Y-103355815D01*
X183687500Y-89825485D02*
X180000000Y-89825485D01*
D49*
%TO.N,+3.3V*%
X149000000Y-70867385D02*
X151000001Y-70867385D01*
D48*
X151460000Y-125865485D02*
X152250000Y-125075485D01*
X192434200Y-80240295D02*
X191500000Y-81174495D01*
D49*
X152500000Y-72367384D02*
X152541899Y-72367384D01*
D48*
X196950000Y-74825485D02*
X192434200Y-79341285D01*
X147500000Y-115825485D02*
X147500000Y-117825485D01*
X167500000Y-104325485D02*
X163998788Y-107826697D01*
X150000000Y-105887985D02*
X150062500Y-105825485D01*
X192434200Y-79341285D02*
X192434200Y-80240295D01*
X163387876Y-109824273D02*
X165938712Y-109824273D01*
X191000000Y-85825485D02*
X184500000Y-85825485D01*
X191349010Y-86174495D02*
X191000000Y-85825485D01*
X173040000Y-128825485D02*
X176125000Y-128825485D01*
D49*
X141875000Y-89867385D02*
X144833100Y-92825485D01*
D48*
X190437500Y-68312985D02*
X190437500Y-67499990D01*
D49*
X151000001Y-70867385D02*
X152500000Y-72367384D01*
D48*
X195107200Y-60518285D02*
X195107200Y-61351390D01*
X190437500Y-67499990D02*
X190437500Y-66021090D01*
X168000000Y-91325485D02*
X167000000Y-90325485D01*
X150062500Y-105825485D02*
X150000000Y-105825485D01*
X167187500Y-103825485D02*
X167187500Y-104027073D01*
D49*
X147000000Y-92775485D02*
X150500000Y-92775485D01*
D48*
X147500000Y-115825485D02*
X149500000Y-113825485D01*
X157501212Y-113713361D02*
X157501212Y-117449273D01*
X168937500Y-111825485D02*
X173237500Y-111825485D01*
X191500000Y-86174495D02*
X191349010Y-86174495D01*
X184500000Y-87825485D02*
X184500000Y-85825485D01*
X158500000Y-118825485D02*
X158125000Y-118825485D01*
X147500000Y-117825485D02*
X146500000Y-118825485D01*
X179400000Y-105662985D02*
X179400000Y-104095029D01*
X177000000Y-101695029D02*
X177000000Y-101325485D01*
X167000000Y-90325485D02*
X156500000Y-79825485D01*
X171625000Y-100200485D02*
X171000000Y-100825485D01*
X175875000Y-100200485D02*
X171625000Y-100200485D01*
X157125000Y-120200485D02*
X157125000Y-117825485D01*
X173237500Y-111825485D02*
X179400000Y-105662985D01*
X157501212Y-117449273D02*
X157125000Y-117825485D01*
X198800000Y-56825485D02*
X195107200Y-60518285D01*
X156500000Y-76325485D02*
X153500000Y-73325485D01*
X151460000Y-127325485D02*
X151460000Y-125865485D01*
X190437500Y-66021090D02*
X193958600Y-62499990D01*
X147000000Y-95825485D02*
X147000000Y-92775485D01*
X150200000Y-108274658D02*
X150000000Y-108074658D01*
X153612124Y-107826697D02*
X153173303Y-107826697D01*
D49*
X145550000Y-92775485D02*
X147000000Y-92775485D01*
D48*
X173500000Y-85825485D02*
X171500000Y-85825485D01*
X169540000Y-125325485D02*
X166500000Y-125325485D01*
X171500000Y-85825485D02*
X167000000Y-90325485D01*
D49*
X138500000Y-86492385D02*
X141875000Y-89867385D01*
D48*
X156500000Y-79825485D02*
X156500000Y-76325485D01*
X150000000Y-105825485D02*
X148500000Y-104325485D01*
X152725342Y-108274658D02*
X150200000Y-108274658D01*
D49*
X152541899Y-72367384D02*
X153500000Y-73325485D01*
D48*
X196950000Y-74825485D02*
X190437500Y-68312985D01*
X165938712Y-109824273D02*
X166437500Y-109325485D01*
X166437500Y-109325485D02*
X168937500Y-111825485D01*
X167500000Y-104325485D02*
X171000000Y-100825485D01*
X184500000Y-85825485D02*
X179000000Y-85825485D01*
X158125000Y-118825485D02*
X157125000Y-117825485D01*
D49*
X142083800Y-81325485D02*
X138500000Y-84909285D01*
X145500000Y-92825485D02*
X145550000Y-92775485D01*
X138500000Y-84909285D02*
X138500000Y-86492385D01*
D48*
X173040000Y-128825485D02*
X169540000Y-125325485D01*
X191500000Y-81174495D02*
X191500000Y-86174495D01*
X177000000Y-101325485D02*
X175875000Y-100200485D01*
X179400000Y-105662985D02*
X185500000Y-99562985D01*
X163998788Y-107826697D02*
X163387876Y-107826697D01*
X152250000Y-125075485D02*
X157125000Y-120200485D01*
X195107200Y-61351390D02*
X193958600Y-62499990D01*
X176125000Y-128825485D02*
X176500000Y-128450485D01*
X199450000Y-56825485D02*
X198800000Y-56825485D01*
X153173303Y-107826697D02*
X152725342Y-108274658D01*
X185500000Y-99562985D02*
X185500000Y-99325485D01*
D49*
X144833100Y-92825485D02*
X145500000Y-92825485D01*
D48*
X179400000Y-104095029D02*
X177000000Y-101695029D01*
X150000000Y-108074658D02*
X150000000Y-105887985D01*
D49*
X143000000Y-81325485D02*
X142083800Y-81325485D01*
D48*
X149000000Y-121825485D02*
X152250000Y-125075485D01*
%TO.N,+3.3VA*%
X165400000Y-128825485D02*
X167960000Y-128825485D01*
X151075000Y-104900485D02*
X151075000Y-104400485D01*
X150000000Y-103325485D02*
X144500000Y-103325485D01*
X144500000Y-103325485D02*
X144000000Y-103825485D01*
X144000000Y-103825485D02*
X144000000Y-107325485D01*
X154672785Y-106766036D02*
X153532234Y-105625485D01*
X153532234Y-105625485D02*
X151800000Y-105625485D01*
X151800000Y-105625485D02*
X151075000Y-104900485D01*
X164062500Y-129612985D02*
X164062500Y-127487985D01*
X164500000Y-122325485D02*
X164500000Y-125325485D01*
X164000000Y-124825485D02*
X164500000Y-125325485D01*
X162750000Y-130925485D02*
X164062500Y-129612985D01*
X164500000Y-127050485D02*
X164062500Y-127487985D01*
X151075000Y-104400485D02*
X150000000Y-103325485D01*
X160000000Y-124825485D02*
X164000000Y-124825485D01*
X164500000Y-125325485D02*
X164500000Y-127050485D01*
X164062500Y-127487985D02*
X165400000Y-128825485D01*
%TO.N,SR1*%
X120375000Y-131200485D02*
X122500000Y-131200485D01*
X118500000Y-130212985D02*
X117500000Y-131212985D01*
X87540000Y-116595485D02*
X91770000Y-116595485D01*
X91770000Y-116595485D02*
X92000000Y-116825485D01*
X118500000Y-129325485D02*
X120375000Y-131200485D01*
X118500000Y-129325485D02*
X118500000Y-130212985D01*
X118500000Y-128825485D02*
X118500000Y-129325485D01*
%TO.N,SR2*%
X116000000Y-98325485D02*
X116450000Y-98775485D01*
X87540000Y-98095485D02*
X91770000Y-98095485D01*
X115500000Y-98325485D02*
X116000000Y-98325485D01*
X116450000Y-98775485D02*
X119000000Y-98775485D01*
X91770000Y-98095485D02*
X92000000Y-98325485D01*
X119000000Y-98775485D02*
X123000000Y-98775485D01*
%TO.N,IS_hbridge1*%
X163500000Y-102764825D02*
X163500000Y-101825485D01*
X90960000Y-117865485D02*
X91000000Y-117825485D01*
X127537500Y-123787985D02*
X123000000Y-123787985D01*
X160913002Y-105351823D02*
X163500000Y-102764825D01*
X87540000Y-117865485D02*
X90960000Y-117865485D01*
X115500000Y-121262985D02*
X118000000Y-123762985D01*
X156500000Y-98825485D02*
X140500000Y-98825485D01*
X122975000Y-123762985D02*
X123000000Y-123787985D01*
X140500000Y-98825485D02*
X140000000Y-99325485D01*
X159500000Y-98825485D02*
X156500000Y-98825485D01*
X115500000Y-118825485D02*
X115500000Y-121262985D01*
X118000000Y-123762985D02*
X122975000Y-123762985D01*
X137000000Y-114325485D02*
X127537500Y-123787985D01*
D49*
%TO.N,P_plus*%
X73000000Y-115825485D02*
X73500000Y-115325485D01*
X80000000Y-118262985D02*
X80000000Y-116325485D01*
X80000000Y-116325485D02*
X79000000Y-115325485D01*
X73000000Y-118262985D02*
X73000000Y-115825485D01*
%TO.N,Net-(MOSFET2-D)*%
X85287500Y-121387985D02*
X87540000Y-119135485D01*
X80000000Y-121387985D02*
X77835150Y-123552835D01*
X116000000Y-86387985D02*
X121000000Y-81387985D01*
X89500000Y-85825485D02*
X106500000Y-85825485D01*
X77835150Y-123552835D02*
X77835150Y-131825485D01*
X77835150Y-139927835D02*
X77500000Y-140262985D01*
X88500000Y-86825485D02*
X89500000Y-85825485D01*
X109115300Y-88440785D02*
X106500000Y-85825485D01*
X80000000Y-121387985D02*
X85287500Y-121387985D01*
X116000000Y-88440785D02*
X109115300Y-88440785D01*
X116000000Y-88440785D02*
X116000000Y-86387985D01*
X77835150Y-131825485D02*
X77835150Y-139927835D01*
%TO.N,P_minus*%
X80500000Y-91700485D02*
X80500000Y-95825485D01*
X71500000Y-94387985D02*
X71500000Y-94825485D01*
X85375000Y-86825485D02*
X80500000Y-91700485D01*
X71500000Y-94825485D02*
X73500000Y-96825485D01*
X80500000Y-95825485D02*
X79500000Y-96825485D01*
D48*
%TO.N,Net-(U2-A)*%
X199800001Y-61849991D02*
X200450000Y-62499990D01*
X200450000Y-63275485D02*
X200125000Y-63600485D01*
X196041400Y-61849991D02*
X199800001Y-61849991D01*
X200450000Y-62499990D02*
X200450000Y-63275485D01*
X200125000Y-63600485D02*
X200125000Y-67499990D01*
%TO.N,/NRST*%
X155000000Y-96825485D02*
X154500000Y-96325485D01*
X161000000Y-97825485D02*
X155000000Y-97825485D01*
X153050000Y-95875485D02*
X150500000Y-95875485D01*
X162431802Y-104540129D02*
X165000000Y-101971931D01*
X155000000Y-97825485D02*
X155000000Y-96825485D01*
X161266555Y-105705376D02*
X162431802Y-104540129D01*
X165000000Y-101971931D02*
X165000000Y-101825485D01*
X153500000Y-96325485D02*
X153050000Y-95875485D01*
X165000000Y-101825485D02*
X164000000Y-100825485D01*
X154500000Y-96325485D02*
X153500000Y-96325485D01*
X161500000Y-98325485D02*
X161000000Y-97825485D01*
%TO.N,Net-(U1-VREF+)*%
X155620746Y-109204739D02*
X155620746Y-107006891D01*
X161375000Y-122325485D02*
X161375000Y-115950485D01*
X155620746Y-107006891D02*
X155026338Y-106412483D01*
X155500000Y-109325485D02*
X155620746Y-109204739D01*
X161375000Y-115950485D02*
X161500000Y-115825485D01*
%TO.N,Net-(U6-A)*%
X198400000Y-81174495D02*
X198400000Y-82949495D01*
X197750001Y-80524496D02*
X198400000Y-81174495D01*
X193582800Y-80524496D02*
X197750001Y-80524496D01*
X198400000Y-82949495D02*
X201625000Y-86174495D01*
D49*
%TO.N,+12V*%
X129230000Y-63985385D02*
X129230000Y-60595485D01*
X149000000Y-62825485D02*
X145500000Y-59325485D01*
X142562500Y-64387985D02*
X142000000Y-63825485D01*
X145500000Y-59325485D02*
X155000000Y-59325485D01*
X129070100Y-63825485D02*
X129230000Y-63985385D01*
X95562500Y-83325485D02*
X100288800Y-78599185D01*
X100288800Y-78599185D02*
X104210000Y-78599185D01*
X142000000Y-60325485D02*
X143000000Y-59325485D01*
X149000000Y-65767385D02*
X149000000Y-62825485D01*
X130500000Y-59325485D02*
X143000000Y-59325485D01*
X143000000Y-59325485D02*
X145500000Y-59325485D01*
X155000000Y-59325485D02*
X159400000Y-63725485D01*
X129230000Y-60595485D02*
X130500000Y-59325485D01*
X159400000Y-63725485D02*
X159400000Y-65725485D01*
X142562500Y-68825485D02*
X142562500Y-64387985D01*
X142000000Y-63825485D02*
X142000000Y-60325485D01*
X100767000Y-63825485D02*
X129070100Y-63825485D01*
%TO.N,+5V*%
X159000000Y-145325485D02*
X149000000Y-145325485D01*
X149000000Y-145325485D02*
X149000000Y-144825485D01*
X216500000Y-125445485D02*
X219880000Y-125445485D01*
X132000000Y-145325485D02*
X129000000Y-142325485D01*
X182500000Y-70325485D02*
X182000000Y-70825485D01*
D48*
X135950000Y-132325485D02*
X135950000Y-135375485D01*
D49*
X220500000Y-124825485D02*
X220500000Y-56325485D01*
X184937500Y-66387985D02*
X182500000Y-66387985D01*
X181600000Y-140325485D02*
X164000000Y-140325485D01*
X182500000Y-137825485D02*
X182500000Y-139425485D01*
X149000000Y-144825485D02*
X146500000Y-142325485D01*
X165500000Y-76345585D02*
X165500000Y-78825485D01*
X167000000Y-80325485D02*
X171500000Y-80325485D01*
X193500000Y-57825485D02*
X184937500Y-66387985D01*
X182500000Y-66387985D02*
X182500000Y-70325485D01*
X217500000Y-53325485D02*
X193500000Y-53325485D01*
X182000000Y-72367385D02*
X179541900Y-74825485D01*
X216500000Y-125445485D02*
X214380000Y-125445485D01*
D48*
X143950000Y-139775485D02*
X146500000Y-142325485D01*
D49*
X220500000Y-56325485D02*
X217500000Y-53325485D01*
X214380000Y-125445485D02*
X202000000Y-137825485D01*
X149000000Y-145325485D02*
X132000000Y-145325485D01*
X159400000Y-70825485D02*
X159979900Y-70825485D01*
X182000000Y-70825485D02*
X182000000Y-72367385D01*
X159979900Y-70825485D02*
X165500000Y-76345585D01*
X193500000Y-53325485D02*
X193500000Y-57825485D01*
X177000000Y-74825485D02*
X179541900Y-74825485D01*
D48*
X143950000Y-132325485D02*
X143950000Y-139775485D01*
D49*
X202000000Y-137825485D02*
X182500000Y-137825485D01*
X171500000Y-80325485D02*
X177000000Y-74825485D01*
X165500000Y-78825485D02*
X167000000Y-80325485D01*
X164000000Y-140325485D02*
X159000000Y-145325485D01*
D48*
X135950000Y-135375485D02*
X129000000Y-142325485D01*
D49*
X182500000Y-139425485D02*
X181600000Y-140325485D01*
X219880000Y-125445485D02*
X220500000Y-124825485D01*
D48*
%TO.N,IS_hbridge2*%
X160559449Y-104998270D02*
X162500000Y-103057719D01*
X134000000Y-101325485D02*
X134000000Y-101700485D01*
X115500000Y-100325485D02*
X116500000Y-101325485D01*
X134000000Y-101700485D02*
X132500000Y-103200485D01*
X116500000Y-101325485D02*
X116500000Y-103825485D01*
X160000000Y-99825485D02*
X157000000Y-99825485D01*
X132500000Y-103200485D02*
X128500000Y-103200485D01*
X126000000Y-103825485D02*
X126625000Y-103200485D01*
X142500000Y-99825485D02*
X142000000Y-100325485D01*
X162500000Y-103057719D02*
X162500000Y-102325485D01*
X87540000Y-99365485D02*
X91460000Y-99365485D01*
X91460000Y-99365485D02*
X91500000Y-99325485D01*
X126625000Y-103200485D02*
X128500000Y-103200485D01*
X157000000Y-99825485D02*
X142500000Y-99825485D01*
X116500000Y-103825485D02*
X126000000Y-103825485D01*
D49*
%TO.N,Net-(D6-K)*%
X159400000Y-67425485D02*
X164820000Y-67425485D01*
X164820000Y-67425485D02*
X167420000Y-64825485D01*
X169458100Y-74825485D02*
X169458100Y-66863585D01*
X169458100Y-66863585D02*
X167420000Y-64825485D01*
%TO.N,Net-(D7-K)*%
X138500000Y-74825485D02*
X145996200Y-74825485D01*
X148420101Y-67467385D02*
X141062001Y-74825485D01*
X149000000Y-67467385D02*
X148420101Y-67467385D01*
X141062001Y-74825485D02*
X138500000Y-74825485D01*
X145996200Y-74825485D02*
X150000000Y-78829285D01*
D48*
%TO.N,Net-(J4-Pin_2)*%
X160446749Y-113954214D02*
X160446749Y-119878736D01*
X159852342Y-113359807D02*
X160446749Y-113954214D01*
X160446749Y-119878736D02*
X154000000Y-126325485D01*
X154000000Y-126325485D02*
X154000000Y-127325485D01*
%TO.N,Net-(J4-Pin_3)*%
X152730000Y-126095485D02*
X152730000Y-127325485D01*
X159498788Y-119326697D02*
X152730000Y-126095485D01*
X159498788Y-113713361D02*
X159498788Y-119326697D01*
D49*
%TO.N,Net-(POT2-Wiper)*%
X200250000Y-134575485D02*
X210650000Y-124175485D01*
X210650000Y-124175485D02*
X216500000Y-124175485D01*
X181500000Y-134575485D02*
X200250000Y-134575485D01*
D48*
%TO.N,Net-(R1-Pad2)*%
X209500000Y-63499990D02*
X209500000Y-58500000D01*
X203550000Y-57825485D02*
X202550000Y-56825485D01*
X209500000Y-58500000D02*
X204224515Y-58500000D01*
X203550000Y-62499990D02*
X204550000Y-63499990D01*
X204550000Y-63499990D02*
X209500000Y-63499990D01*
X204224515Y-58500000D02*
X202550000Y-56825485D01*
X203550000Y-62499990D02*
X203550000Y-57825485D01*
%TO.N,PA11*%
X139050000Y-132325485D02*
X139050000Y-137275485D01*
X153500000Y-113825485D02*
X155267766Y-113825485D01*
X155267766Y-113825485D02*
X156440551Y-112652700D01*
X139050000Y-132325485D02*
X139050000Y-127775485D01*
X139050000Y-127775485D02*
X151500000Y-115325485D01*
X151500000Y-115325485D02*
X152000000Y-115325485D01*
X139050000Y-137275485D02*
X134000000Y-142325485D01*
X152000000Y-115325485D02*
X153500000Y-113825485D01*
%TO.N,PA12*%
X153974874Y-115825485D02*
X156794105Y-113006254D01*
X153000000Y-115825485D02*
X153974874Y-115825485D01*
X147050000Y-121775485D02*
X153000000Y-115825485D01*
X147050000Y-132325485D02*
X147050000Y-137875485D01*
X147050000Y-132325485D02*
X147050000Y-121775485D01*
X156794105Y-113006254D02*
X157388511Y-112411846D01*
X147050000Y-137875485D02*
X151500000Y-142325485D01*
%TO.N,/BOOT0*%
X165500000Y-107325485D02*
X171300000Y-107325485D01*
X161732808Y-110290527D02*
X161732808Y-109941383D01*
X161732808Y-109941383D02*
X162848706Y-108825485D01*
X164000000Y-108825485D02*
X165500000Y-107325485D01*
X162848706Y-108825485D02*
X164000000Y-108825485D01*
X171300000Y-107325485D02*
X174250000Y-104375485D01*
X162327215Y-110884934D02*
X161732808Y-110290527D01*
%TO.N,Net-(R7-Pad1)*%
X209500000Y-78825495D02*
X209500000Y-83825485D01*
X201500000Y-81174495D02*
X203849000Y-78825495D01*
X200050000Y-74825485D02*
X200050000Y-79724495D01*
X203849000Y-78825495D02*
X209500000Y-78825495D01*
X200050000Y-79724495D02*
X201500000Y-81174495D01*
%TO.N,Net-(J3-Pad15)*%
X185772500Y-108935485D02*
X182500000Y-105662985D01*
X216500000Y-108935485D02*
X185772500Y-108935485D01*
%TO.N,Net-(Q2-Pad1)*%
X129230000Y-74545485D02*
X128500000Y-75275485D01*
X129230000Y-70665585D02*
X129230000Y-74545485D01*
%TO.N,PA10*%
X156553251Y-103671630D02*
X156553251Y-103696756D01*
X159500000Y-108325485D02*
X159500000Y-106325485D01*
X156553251Y-103696756D02*
X157147658Y-104291163D01*
X158181980Y-105325485D02*
X157147658Y-104291163D01*
X157280330Y-111105815D02*
X157280330Y-110545155D01*
X156086998Y-112299147D02*
X157280330Y-111105815D01*
X157280330Y-110545155D02*
X159500000Y-108325485D01*
X156000000Y-103118379D02*
X156553251Y-103671630D01*
X128500000Y-78375485D02*
X128500000Y-79825485D01*
X158500000Y-105325485D02*
X158181980Y-105325485D01*
X156000000Y-100825485D02*
X156000000Y-103118379D01*
X159500000Y-106325485D02*
X158500000Y-105325485D01*
X128500000Y-79825485D02*
X146500000Y-97825485D01*
X146500000Y-97825485D02*
X148500000Y-97825485D01*
%TO.N,Net-(U5-INH)*%
X91270000Y-114055485D02*
X91500000Y-113825485D01*
X87540000Y-114055485D02*
X91270000Y-114055485D01*
X116500000Y-113325485D02*
X116000000Y-113825485D01*
X121450000Y-113325485D02*
X116500000Y-113325485D01*
%TO.N,PB11*%
X152110912Y-111325485D02*
X132500000Y-111325485D01*
X153612124Y-109824273D02*
X152110912Y-111325485D01*
X132500000Y-111325485D02*
X130500000Y-113325485D01*
X130500000Y-113325485D02*
X124550000Y-113325485D01*
%TO.N,Net-(U3-INH)*%
X118850000Y-95325485D02*
X120350000Y-93825485D01*
X87540000Y-95555485D02*
X91770000Y-95555485D01*
X91770000Y-95555485D02*
X92000000Y-95325485D01*
X115500000Y-95325485D02*
X118850000Y-95325485D01*
%TO.N,PB12*%
X143449173Y-108774658D02*
X128500000Y-93825485D01*
X153965678Y-110177827D02*
X154560084Y-109583419D01*
X154560084Y-109583419D02*
X154560084Y-109234275D01*
X154560084Y-109234275D02*
X154100467Y-108774658D01*
X154100467Y-108774658D02*
X143449173Y-108774658D01*
X128500000Y-93825485D02*
X123450000Y-93825485D01*
%TO.N,PA9*%
X141500000Y-102325485D02*
X142500000Y-102325485D01*
X159000000Y-107500000D02*
X157674515Y-108825485D01*
X156794105Y-104644716D02*
X159000000Y-106850611D01*
X154000000Y-101825485D02*
X156000000Y-103825485D01*
X159000000Y-106850611D02*
X159000000Y-107500000D01*
X157500000Y-108825485D02*
X156780330Y-109545155D01*
X157674515Y-108825485D02*
X157500000Y-108825485D01*
X129000000Y-89825485D02*
X141500000Y-102325485D01*
X156000000Y-103850611D02*
X156794105Y-104644716D01*
X156780330Y-109545155D02*
X156780330Y-110898709D01*
X143000000Y-101825485D02*
X154000000Y-101825485D01*
X156780330Y-110898709D02*
X155733445Y-111945594D01*
X156000000Y-103825485D02*
X156000000Y-103850611D01*
X123550000Y-89825485D02*
X129000000Y-89825485D01*
X142500000Y-102325485D02*
X143000000Y-101825485D01*
%TO.N,Net-(U3-IN)*%
X115500000Y-93325485D02*
X116950000Y-93325485D01*
X87540000Y-94285485D02*
X92040000Y-94285485D01*
X116950000Y-93325485D02*
X120450000Y-89825485D01*
X92040000Y-94285485D02*
X92500000Y-93825485D01*
%TO.N,PA8*%
X136500000Y-112825485D02*
X133000000Y-116325485D01*
X127050000Y-116325485D02*
X124550000Y-118825485D01*
X154146448Y-112825485D02*
X136500000Y-112825485D01*
X133000000Y-116325485D02*
X127050000Y-116325485D01*
X155379891Y-111592040D02*
X155323224Y-111648709D01*
X155323224Y-111648709D02*
X154146448Y-112825485D01*
%TO.N,Net-(U5-IN)*%
X118500000Y-114825485D02*
X118500000Y-115875485D01*
X91960000Y-112785485D02*
X92000000Y-112825485D01*
X87540000Y-112785485D02*
X91960000Y-112785485D01*
X118500000Y-115875485D02*
X121450000Y-118825485D01*
D49*
%TO.N,Net-(MOSFET2-G)*%
X108790000Y-78599185D02*
X114226300Y-78599185D01*
X114226300Y-78599185D02*
X114500000Y-78325485D01*
X114500000Y-78325485D02*
X114500000Y-72313185D01*
X117512300Y-72325485D02*
X116000000Y-70813185D01*
X114500000Y-72313185D02*
X116000000Y-70813185D01*
X122000000Y-72325485D02*
X117512300Y-72325485D01*
D48*
%TO.N,PB1*%
X170310000Y-121635485D02*
X216500000Y-121635485D01*
X156086998Y-105351823D02*
X155346144Y-104610968D01*
X155346144Y-104610968D02*
X155346144Y-104610967D01*
X168000000Y-119325485D02*
X170310000Y-121635485D01*
X155060662Y-104325485D02*
X153000000Y-104325485D01*
X155346144Y-104610967D02*
X155060662Y-104325485D01*
%TO.N,PB7*%
X161973662Y-111238487D02*
X164560660Y-113825485D01*
X174690000Y-114015485D02*
X216500000Y-114015485D01*
X174500000Y-113825485D02*
X174690000Y-114015485D01*
X164560660Y-113825485D02*
X174500000Y-113825485D01*
%TO.N,PB4*%
X173000000Y-116825485D02*
X173230000Y-117055485D01*
X177325485Y-117825485D02*
X212500000Y-117825485D01*
X173230000Y-117055485D02*
X175555485Y-117055485D01*
X160913002Y-112299147D02*
X165439340Y-116825485D01*
X177000000Y-117500000D02*
X177325485Y-117825485D01*
X212500000Y-117825485D02*
X216500000Y-117825485D01*
X176000000Y-117500000D02*
X177000000Y-117500000D01*
X175555485Y-117055485D02*
X176000000Y-117500000D01*
X165439340Y-116825485D02*
X173000000Y-116825485D01*
%TO.N,PA4*%
X183561900Y-79874497D02*
X191500000Y-79874497D01*
X159498788Y-103937609D02*
X183561900Y-79874497D01*
%TO.N,PA5*%
X183500000Y-71658592D02*
X183500000Y-77938821D01*
X193958600Y-61199992D02*
X183500000Y-71658592D01*
X183500000Y-77938821D02*
X157501212Y-103937609D01*
%TO.N,PB0*%
X176580000Y-122905485D02*
X216500000Y-122905485D01*
X176500000Y-122825485D02*
X176580000Y-122905485D01*
X156440551Y-104998270D02*
X155846145Y-104403862D01*
X154767768Y-103325485D02*
X152500000Y-103325485D01*
X155846145Y-104403862D02*
X154767768Y-103325485D01*
%TO.N,PB2*%
X152000000Y-104896453D02*
X152000000Y-104825485D01*
X155139038Y-105110969D02*
X152214516Y-105110969D01*
X204540000Y-120365485D02*
X216500000Y-120365485D01*
X172500000Y-120000000D02*
X172865485Y-120365485D01*
X171000000Y-120000000D02*
X172500000Y-120000000D01*
X169625485Y-118625485D02*
X171000000Y-120000000D01*
X165700000Y-118625485D02*
X169625485Y-118625485D01*
X152214516Y-105110969D02*
X152000000Y-104896453D01*
X165500000Y-118825485D02*
X165700000Y-118625485D01*
X172865485Y-120365485D02*
X204540000Y-120365485D01*
X155733445Y-105705376D02*
X155139038Y-105110969D01*
%TO.N,PB13*%
X195000000Y-110325485D02*
X195120000Y-110205485D01*
X154319231Y-110531380D02*
X153025126Y-111825485D01*
X153025126Y-111825485D02*
X153000000Y-111825485D01*
X195120000Y-110205485D02*
X216500000Y-110205485D01*
X193500000Y-110325485D02*
X195000000Y-110325485D01*
%TO.N,PB6*%
X161620109Y-111592040D02*
X164853554Y-114825485D01*
X174460000Y-115285485D02*
X216500000Y-115285485D01*
X164853554Y-114825485D02*
X174000000Y-114825485D01*
X174000000Y-114825485D02*
X174460000Y-115285485D01*
%TO.N,PB9*%
X164974874Y-112825485D02*
X174500000Y-112825485D01*
X174500000Y-112825485D02*
X174580000Y-112745485D01*
X162680769Y-110531380D02*
X164974874Y-112825485D01*
X174580000Y-112745485D02*
X216500000Y-112745485D01*
%TO.N,PB10*%
X179000000Y-111825485D02*
X179350000Y-111475485D01*
X153525126Y-106325485D02*
X152000000Y-106325485D01*
X175500000Y-111825485D02*
X179000000Y-111825485D01*
X154319231Y-107119590D02*
X153525126Y-106325485D01*
X179350000Y-111475485D02*
X216500000Y-111475485D01*
%TO.N,PB5*%
X173825485Y-115825485D02*
X174000000Y-116000000D01*
X209230000Y-116555485D02*
X216500000Y-116555485D01*
X175500000Y-116000000D02*
X176000000Y-116500000D01*
X209000000Y-116500000D02*
X209087258Y-116412742D01*
X174000000Y-116000000D02*
X175500000Y-116000000D01*
X209087258Y-116412742D02*
X209230000Y-116555485D01*
X161266555Y-111945594D02*
X165146446Y-115825485D01*
X165146446Y-115825485D02*
X173825485Y-115825485D01*
X176000000Y-116500000D02*
X209000000Y-116500000D01*
%TO.N,PB3*%
X172825485Y-117825485D02*
X174000000Y-119000000D01*
X212967408Y-119000000D02*
X213062893Y-119095485D01*
X174000000Y-119000000D02*
X212967408Y-119000000D01*
X165732234Y-117825485D02*
X172825485Y-117825485D01*
X160559449Y-112652700D02*
X165732234Y-117825485D01*
X213062893Y-119095485D02*
X216500000Y-119095485D01*
D49*
%TO.N,Net-(J1-Pad1)*%
X131770000Y-63985385D02*
X131840100Y-63985385D01*
X131840100Y-63985385D02*
X134500000Y-61325485D01*
X134500000Y-50859485D02*
X135534000Y-49825485D01*
X134500000Y-56825485D02*
X134500000Y-50859485D01*
%TD*%
%TA.AperFunction,Conductor*%
%TO.N,P_plus*%
G36*
X84443039Y-105845170D02*
G01*
X84488794Y-105897974D01*
X84500000Y-105949485D01*
X84500000Y-114325485D01*
X84500001Y-114325486D01*
X85331572Y-114741271D01*
X85370547Y-114773436D01*
X85370609Y-114773375D01*
X85371253Y-114774019D01*
X85374493Y-114776693D01*
X85376358Y-114779123D01*
X85376357Y-114779123D01*
X85501537Y-114875178D01*
X85501543Y-114875181D01*
X85556571Y-114897974D01*
X85647314Y-114935561D01*
X85764472Y-114950985D01*
X85764479Y-114950985D01*
X89315521Y-114950985D01*
X89315528Y-114950985D01*
X89432686Y-114935561D01*
X89578461Y-114875179D01*
X89599735Y-114858854D01*
X89609830Y-114851109D01*
X89674999Y-114825915D01*
X89685316Y-114825485D01*
X92855500Y-114825485D01*
X92922539Y-114845170D01*
X92968294Y-114897974D01*
X92979500Y-114949485D01*
X92979501Y-115701485D01*
X92959817Y-115768524D01*
X92907013Y-115814279D01*
X92855501Y-115825485D01*
X89685316Y-115825485D01*
X89618277Y-115805800D01*
X89609830Y-115799861D01*
X89578461Y-115775791D01*
X89578456Y-115775788D01*
X89432689Y-115715410D01*
X89432684Y-115715408D01*
X89315537Y-115699986D01*
X89315534Y-115699985D01*
X89315528Y-115699985D01*
X85764472Y-115699985D01*
X85764466Y-115699985D01*
X85764462Y-115699986D01*
X85647315Y-115715408D01*
X85647310Y-115715410D01*
X85501543Y-115775788D01*
X85501538Y-115775791D01*
X85470170Y-115799861D01*
X85405001Y-115825055D01*
X85394684Y-115825485D01*
X69624000Y-115825485D01*
X69556961Y-115805800D01*
X69511206Y-115752996D01*
X69500000Y-115701485D01*
X69500000Y-105949485D01*
X69519685Y-105882446D01*
X69572489Y-105836691D01*
X69624000Y-105825485D01*
X84376000Y-105825485D01*
X84443039Y-105845170D01*
G37*
%TD.AperFunction*%
%TD*%
%TA.AperFunction,Conductor*%
%TO.N,+12V*%
G36*
X111943039Y-61845170D02*
G01*
X111988794Y-61897974D01*
X112000000Y-61949485D01*
X112000000Y-74251874D01*
X111980315Y-74318913D01*
X111935378Y-74360733D01*
X106500000Y-77325485D01*
X106500000Y-81201485D01*
X106480315Y-81268524D01*
X106427511Y-81314279D01*
X106376000Y-81325485D01*
X98624000Y-81325485D01*
X98556961Y-81305800D01*
X98511206Y-81252996D01*
X98500000Y-81201485D01*
X98500000Y-61949485D01*
X98519685Y-61882446D01*
X98572489Y-61836691D01*
X98624000Y-61825485D01*
X111876000Y-61825485D01*
X111943039Y-61845170D01*
G37*
%TD.AperFunction*%
%TD*%
%TA.AperFunction,Conductor*%
%TO.N,P_minus*%
G36*
X85461723Y-96345170D02*
G01*
X85470170Y-96351109D01*
X85491217Y-96367258D01*
X85501539Y-96375179D01*
X85501541Y-96375179D01*
X85501543Y-96375181D01*
X85556571Y-96397974D01*
X85647314Y-96435561D01*
X85764472Y-96450985D01*
X85764479Y-96450985D01*
X89315521Y-96450985D01*
X89315528Y-96450985D01*
X89432686Y-96435561D01*
X89578461Y-96375179D01*
X89599735Y-96358854D01*
X89609830Y-96351109D01*
X89674999Y-96325915D01*
X89685316Y-96325485D01*
X92855500Y-96325485D01*
X92922539Y-96345170D01*
X92968294Y-96397974D01*
X92979500Y-96449485D01*
X92979501Y-97201485D01*
X92959817Y-97268524D01*
X92907013Y-97314279D01*
X92855501Y-97325485D01*
X89685316Y-97325485D01*
X89618277Y-97305800D01*
X89609830Y-97299861D01*
X89578461Y-97275791D01*
X89578456Y-97275788D01*
X89432689Y-97215410D01*
X89432684Y-97215408D01*
X89315537Y-97199986D01*
X89315534Y-97199985D01*
X89315528Y-97199985D01*
X85764472Y-97199985D01*
X85764466Y-97199985D01*
X85764462Y-97199986D01*
X85647315Y-97215408D01*
X85647310Y-97215410D01*
X85501543Y-97275788D01*
X85501538Y-97275791D01*
X85470170Y-97299861D01*
X85405001Y-97325055D01*
X85394684Y-97325485D01*
X85000000Y-97325485D01*
X84507750Y-105201485D01*
X84507267Y-105209220D01*
X84483438Y-105274901D01*
X84427883Y-105317273D01*
X84383508Y-105325485D01*
X69624000Y-105325485D01*
X69556961Y-105305800D01*
X69511206Y-105252996D01*
X69500000Y-105201485D01*
X69500000Y-96449485D01*
X69519685Y-96382446D01*
X69572489Y-96336691D01*
X69624000Y-96325485D01*
X85394684Y-96325485D01*
X85461723Y-96345170D01*
G37*
%TD.AperFunction*%
%TD*%
%TA.AperFunction,Conductor*%
%TO.N,GND*%
G36*
X100337162Y-56519685D02*
G01*
X100382917Y-56572489D01*
X100392861Y-56641647D01*
X100373747Y-56692103D01*
X97000000Y-61825483D01*
X97000000Y-79201485D01*
X96980315Y-79268524D01*
X96927511Y-79314279D01*
X96876000Y-79325485D01*
X84124000Y-79325485D01*
X84056961Y-79305800D01*
X84011206Y-79252996D01*
X84000000Y-79201485D01*
X84000000Y-56624000D01*
X84019685Y-56556961D01*
X84072489Y-56511206D01*
X84124000Y-56500000D01*
X100270123Y-56500000D01*
X100337162Y-56519685D01*
G37*
%TD.AperFunction*%
%TD*%
%TA.AperFunction,Conductor*%
%TO.N,Net-(MOSFET2-D)*%
G36*
X113943039Y-82345170D02*
G01*
X113988794Y-82397974D01*
X114000000Y-82449485D01*
X114000000Y-131201485D01*
X113980315Y-131268524D01*
X113927511Y-131314279D01*
X113876000Y-131325485D01*
X84624000Y-131325485D01*
X84556961Y-131305800D01*
X84511206Y-131252996D01*
X84500000Y-131201485D01*
X84500000Y-118949485D01*
X84519685Y-118882446D01*
X84572489Y-118836691D01*
X84624000Y-118825485D01*
X92376000Y-118825485D01*
X92443039Y-118845170D01*
X92488794Y-118897974D01*
X92500000Y-118949485D01*
X92500000Y-121325485D01*
X101999999Y-121325485D01*
X102000000Y-121325485D01*
X102500000Y-120325485D01*
X102500000Y-109325485D01*
X85624000Y-109325485D01*
X85556961Y-109305800D01*
X85511206Y-109252996D01*
X85500000Y-109201485D01*
X85500000Y-100449485D01*
X85519685Y-100382446D01*
X85572489Y-100336691D01*
X85624000Y-100325485D01*
X92855501Y-100325485D01*
X92922540Y-100345170D01*
X92968295Y-100397974D01*
X92979501Y-100449485D01*
X92979501Y-101671659D01*
X92985700Y-101750441D01*
X92985700Y-101750444D01*
X92985701Y-101750445D01*
X92995775Y-101788043D01*
X93000000Y-101820133D01*
X93000000Y-102825485D01*
X101999999Y-102825485D01*
X102000000Y-102825485D01*
X102500000Y-101825485D01*
X102500000Y-82449485D01*
X102519685Y-82382446D01*
X102572489Y-82336691D01*
X102624000Y-82325485D01*
X113876000Y-82325485D01*
X113943039Y-82345170D01*
G37*
%TD.AperFunction*%
%TD*%
M02*
